<svg width="1010" height="938" viewBox="0 0 1010 938" fill="none" xmlns="http://www.w3.org/2000/svg">
<g id="blobs">
<g id="second__blob">
<mask id="path-1-inside-1_610_22" fill="white">
<path d="M78.9364 477.223C80.0084 376.477 193.333 270.304 325.682 213.206C458.353 155.666 610.693 146.317 675.001 212.181C739.75 278.367 717.112 418.883 699.224 554.742C681.779 690.923 668.642 822.125 603.262 857.007C537.56 892.331 418.851 831.454 303.626 752.813C188.842 674.494 77.5422 578.411 78.9364 477.223Z"/>
</mask>
<path d="M78.9364 477.223C80.0084 376.477 193.333 270.304 325.682 213.206C458.353 155.666 610.693 146.317 675.001 212.181C739.75 278.367 717.112 418.883 699.224 554.742C681.779 690.923 668.642 822.125 603.262 857.007C537.56 892.331 418.851 831.454 303.626 752.813C188.842 674.494 77.5422 578.411 78.9364 477.223Z" stroke="black" stroke-width="12" mask="url(#path-1-inside-1_610_22)"/>
</g>
<g id="first__blob">
<mask id="path-2-inside-2_610_22" fill="white">
<path d="M145.839 477.457C146.911 376.71 260.235 270.538 392.584 213.439C525.255 155.899 677.595 146.55 741.903 212.414C806.653 278.6 784.014 419.116 766.127 554.975C748.681 691.156 735.544 822.358 670.164 857.241C604.462 892.565 485.754 831.688 370.528 753.047C255.745 674.728 144.445 578.644 145.839 477.457Z"/>
</mask>
<path d="M145.839 477.457C146.911 376.71 260.235 270.538 392.584 213.439C525.255 155.899 677.595 146.55 741.903 212.414C806.653 278.6 784.014 419.116 766.127 554.975C748.681 691.156 735.544 822.358 670.164 857.241C604.462 892.565 485.754 831.688 370.528 753.047C255.745 674.728 144.445 578.644 145.839 477.457Z" stroke="black" stroke-width="12" mask="url(#path-2-inside-2_610_22)"/>
</g>
</g>
</svg>
