<svg width="114" height="113" viewBox="0 0 114 113" fill="none" xmlns="http://www.w3.org/2000/svg">
<path d="M53.5811 19.126L56.1299 9.20313H57.4658L57.3164 11.7607L54.5918 22H53.2031L53.5811 19.126ZM51.6738 9.20313L53.7393 19.0469L53.9238 22H52.4473L49.4854 9.20312L51.6738 9.20313ZM60.3574 19.0205L62.3965 9.20313H64.5938L61.6318 22H60.1553L60.3574 19.0205ZM57.9844 9.20313L60.5068 19.1523L60.876 22H59.4873L56.8067 11.7607L56.666 9.20313H57.9844Z" fill="black"/>
<path d="M68.6829 23.1016C68.0136 22.886 67.4441 22.5826 66.9743 22.1912C66.5119 21.796 66.1558 21.3397 65.9062 20.8222C65.6621 20.3066 65.5272 19.7491 65.5017 19.15C65.4761 18.5508 65.5646 17.9422 65.7672 17.3241L65.8767 16.9901C66.1085 16.283 66.4216 15.6759 66.8159 15.1688C67.2103 14.6618 67.6581 14.2644 68.1594 13.9765C68.6626 13.683 69.2007 13.5085 69.7739 13.453C70.347 13.3975 70.9264 13.4641 71.512 13.6527C72.1589 13.8611 72.6894 14.152 73.1035 14.5254C73.5175 14.8988 73.8187 15.3344 74.007 15.8321C74.2027 16.326 74.2902 16.8682 74.2693 17.4586C74.254 18.0507 74.1396 18.6725 73.926 19.324L73.6441 20.1842L66.6502 17.9317L67.1238 16.4868L72.1266 18.0981L72.1786 17.9394C72.2861 17.5739 72.3249 17.2109 72.2951 16.8504C72.2708 16.4917 72.1568 16.1719 71.953 15.8908C71.7492 15.6097 71.4242 15.3973 70.978 15.2536C70.6433 15.1458 70.3212 15.1221 70.0116 15.1824C69.7095 15.239 69.4281 15.373 69.1676 15.5846C68.9071 15.7962 68.6674 16.076 68.4485 16.4241C68.237 16.7684 68.0546 17.1744 67.9012 17.6421L67.7917 17.9762C67.6622 18.3715 67.5947 18.7561 67.5893 19.1298C67.5914 19.4998 67.6573 19.8442 67.7871 20.163C67.9169 20.4818 68.1086 20.7621 68.3624 21.0039C68.6179 21.2401 68.9381 21.4202 69.3229 21.5441C69.8081 21.7004 70.2723 21.7422 70.7155 21.6694C71.1586 21.5967 71.578 21.4271 71.9737 21.1605L72.6994 22.53C72.4111 22.7511 72.0679 22.9422 71.6698 23.1033C71.2735 23.2588 70.823 23.3446 70.3183 23.3605C69.8192 23.3783 69.2741 23.292 68.6829 23.1016Z" fill="black"/>
<path d="M86.9329 17.461L78.9521 28.3493L77.2261 27.1064L85.207 16.218L86.9329 17.461Z" fill="black"/>
<path d="M87.4608 34.8987C87.6652 35.1775 87.9035 35.3886 88.1756 35.532C88.456 35.6766 88.7463 35.7456 89.0464 35.7388C89.35 35.7368 89.6378 35.6487 89.9097 35.4745L91.0892 37.0837C90.583 37.4338 90.0215 37.6143 89.4048 37.6252C88.788 37.6361 88.187 37.495 87.6016 37.2017C87.0209 36.9051 86.5227 36.4732 86.1071 35.9061C85.6775 35.3201 85.4033 34.7378 85.2843 34.1592C85.1701 33.5772 85.1856 33.0137 85.3309 32.4686C85.4762 31.9235 85.7282 31.4099 86.0867 30.9278C86.4488 30.4505 86.8961 30.02 87.4286 29.6365L87.6782 29.4568C88.2107 29.0733 88.7619 28.7846 89.3318 28.5908C89.9099 28.3983 90.4829 28.3178 91.0508 28.3493C91.6187 28.3807 92.1619 28.5419 92.6802 28.8329C93.2034 29.1204 93.678 29.5548 94.104 30.1361C94.5543 30.7505 94.8256 31.3783 94.9178 32.0194C95.0148 32.6572 94.9415 33.2659 94.6981 33.8456C94.4629 34.4266 94.061 34.929 93.4927 35.3527L92.3132 33.7436C92.5881 33.524 92.7929 33.2682 92.9276 32.9762C93.0705 32.6855 93.1278 32.3771 93.0994 32.051C93.0745 31.7296 92.9477 31.4129 92.7191 31.101C92.4662 30.756 92.1853 30.5215 91.8764 30.3974C91.5723 30.2698 91.2522 30.2296 90.9162 30.2766C90.5849 30.3202 90.2487 30.4215 89.9076 30.5806C89.5747 30.7409 89.249 30.9357 88.9304 31.1652L88.6808 31.3449C88.3622 31.5743 88.0722 31.8229 87.8108 32.0906C87.5493 32.3583 87.3465 32.6416 87.2023 32.9404C87.0663 33.2405 87.0101 33.5553 87.0338 33.8849C87.0621 34.2111 87.2045 34.549 87.4608 34.8987Z" fill="black"/>
<path d="M94.27 39.8522L94.4624 39.7902C95.1149 39.58 95.7511 39.4798 96.3709 39.4895C96.9962 39.4974 97.5737 39.613 98.1032 39.8364C98.6401 40.0636 99.1078 40.3993 99.5062 40.8435C99.912 41.2914 100.223 41.8439 100.438 42.5009C100.655 43.1635 100.731 43.7914 100.667 44.3846C100.61 44.9817 100.431 45.5285 100.132 46.0251C99.8377 46.52 99.4401 46.9527 98.9388 47.3235C98.4432 47.6924 97.8691 47.9819 97.2165 48.1921L97.0241 48.2541C96.3716 48.4642 95.7354 48.5645 95.1156 48.5548C94.4958 48.5451 93.9175 48.4267 93.3806 48.1995C92.8492 47.9705 92.3815 47.6348 91.9776 47.1925C91.5792 46.7483 91.2723 46.1977 91.0569 45.5407C90.8397 44.8781 90.7597 44.2483 90.8168 43.6513C90.8813 43.058 91.0606 42.514 91.3547 42.0192C91.6543 41.5225 92.052 41.0897 92.5477 40.7208C93.0433 40.3519 93.6175 40.0623 94.27 39.8522ZM95.1222 41.803L94.9298 41.8649C94.5226 41.9961 94.1515 42.1618 93.8163 42.3621C93.4812 42.5623 93.2062 42.7956 92.9913 43.0617C92.7764 43.3279 92.6365 43.6254 92.5716 43.9541C92.5067 44.2828 92.5372 44.6392 92.6632 45.0234C92.7854 45.3964 92.9694 45.6942 93.215 45.9167C93.4624 46.1448 93.752 46.304 94.0836 46.3941C94.4153 46.4843 94.7761 46.5127 95.166 46.4795C95.5577 46.4518 95.9572 46.3724 96.3643 46.2413L96.5567 46.1793C96.9583 46.05 97.3229 45.8833 97.6507 45.6793C97.9858 45.479 98.2627 45.2421 98.4814 44.9685C98.7018 44.7005 98.8445 44.4022 98.9094 44.0735C98.9817 43.7486 98.9558 43.3968 98.8317 43.0182C98.7076 42.6396 98.519 42.3371 98.266 42.1108C98.0205 41.8883 97.729 41.7329 97.3918 41.6445C97.0545 41.5561 96.6909 41.5286 96.301 41.5618C95.9167 41.5933 95.5237 41.6736 95.1222 41.803Z" fill="black"/>
<path d="M99.5762 51.8682L92 51.8682V49.75L101.51 49.75V51.7451L99.5762 51.8682ZM97.1064 51.5254L97.1152 50.8047C97.7715 50.8047 98.3779 50.8867 98.9346 51.0508C99.4912 51.2149 99.9746 51.4551 100.385 51.7715C100.801 52.0879 101.12 52.4805 101.343 52.9492C101.571 53.4238 101.686 53.9717 101.686 54.5928C101.686 55.0264 101.621 55.4219 101.492 55.7793C101.369 56.1426 101.173 56.4561 100.903 56.7197C100.634 56.9893 100.288 57.1943 99.8662 57.335C99.4443 57.4815 98.9346 57.5547 98.3369 57.5547H92V55.4365L98.1523 55.4365C98.6152 55.4365 98.9785 55.3662 99.2422 55.2256C99.5059 55.0908 99.6934 54.8945 99.8047 54.6367C99.9219 54.3848 99.9805 54.083 99.9805 53.7315C99.9805 53.333 99.9043 52.9932 99.752 52.7119C99.5996 52.4365 99.3916 52.2109 99.1279 52.0352C98.8643 51.8594 98.5596 51.7305 98.2139 51.6484C97.8682 51.5664 97.499 51.5254 97.1064 51.5254ZM97.6689 57.4229L97.4492 56.4297C98.0234 56.4297 98.5654 56.5088 99.0752 56.667C99.5908 56.8311 100.042 57.0684 100.429 57.3789C100.821 57.6953 101.129 58.085 101.352 58.5479C101.574 59.0108 101.686 59.541 101.686 60.1387C101.686 60.625 101.618 61.0586 101.483 61.4395C101.354 61.8262 101.149 62.1543 100.868 62.4238C100.587 62.6934 100.221 62.8984 99.7695 63.0391C99.3242 63.1797 98.7852 63.25 98.1523 63.25H92V61.1231H98.1611C98.6416 61.1231 99.0137 61.0527 99.2773 60.9121C99.541 60.7774 99.7227 60.584 99.8223 60.332C99.9277 60.0801 99.9805 59.7783 99.9805 59.4268C99.9805 59.0986 99.9189 58.8086 99.7959 58.5567C99.6787 58.3106 99.5117 58.1026 99.2949 57.9326C99.084 57.7627 98.8408 57.6338 98.5654 57.5459C98.29 57.4639 97.9912 57.4229 97.6689 57.4229Z" fill="black"/>
<path d="M90.837 68.1298C91.0561 67.4617 91.3628 66.8926 91.7574 66.4225C92.1557 65.9599 92.6149 65.603 93.135 65.3519C93.6532 65.1064 94.2129 64.9696 94.8141 64.9416C95.4152 64.9136 96.0253 64.9993 96.6444 65.1987L96.979 65.3065C97.6873 65.5346 98.2949 65.8442 98.8018 66.2352C99.3088 66.6262 99.7056 67.0711 99.9923 67.5697C100.285 68.0701 100.457 68.6059 100.511 69.177C100.564 69.7482 100.495 70.3261 100.303 70.9107C100.091 71.5566 99.7972 72.0867 99.4209 72.501C99.0446 72.9154 98.6065 73.2175 98.1065 73.4073C97.6102 73.6045 97.066 73.6939 96.4739 73.6756C95.88 73.6628 95.2568 73.5514 94.6042 73.3412L93.7425 73.0637L96.0312 66.0816L97.4785 66.5477L95.8414 71.5421L96.0004 71.5933C96.3665 71.6989 96.7305 71.7361 97.0922 71.7049C97.452 71.6792 97.7734 71.5641 98.0562 71.3598C98.339 71.1554 98.5534 70.8305 98.6994 70.385C98.8089 70.051 98.8341 69.7297 98.7749 69.4213C98.7194 69.1203 98.5861 68.8404 98.3749 68.5816C98.1638 68.3227 97.8841 68.0849 97.5359 67.8681C97.1914 67.6587 96.785 67.4785 96.3165 67.3276L95.9818 67.2199C95.5858 67.0923 95.2004 67.0267 94.8255 67.0229C94.4544 67.0265 94.1087 67.0936 93.7883 67.2244C93.468 67.3551 93.186 67.5475 92.9425 67.8014C92.7045 68.0572 92.5225 68.3772 92.3966 68.7614C92.2378 69.2458 92.194 69.7087 92.2651 70.1502C92.3362 70.5917 92.5045 71.0091 92.7702 71.4024L91.3935 72.1317C91.173 71.8452 90.9827 71.5039 90.8228 71.1077C90.6685 70.7132 90.5843 70.2645 90.5704 69.7614C90.5547 69.2639 90.6436 68.72 90.837 68.1298Z" fill="black"/>
<path d="M81.7212 94.3751L80.8067 93.1275L85.1573 89.9944L86.0717 91.242L81.7212 94.3751ZM86.1934 94.0245L84.4746 95.2624L79.0293 87.8333C78.8561 87.597 78.6895 87.4391 78.5294 87.3594C78.368 87.2879 78.2099 87.2754 78.0551 87.3219C77.9003 87.3684 77.7397 87.4516 77.5733 87.5714C77.4544 87.657 77.3455 87.7463 77.2465 87.8392C77.1476 87.9322 77.07 88.0097 77.0138 88.0718L76.0507 86.7726C76.1621 86.6273 76.3008 86.4697 76.4668 86.2996C76.628 86.133 76.8298 85.9624 77.0723 85.7877C77.4669 85.5035 77.8666 85.3204 78.2714 85.2383C78.6796 85.1609 79.0853 85.2189 79.4886 85.4123C79.8918 85.6056 80.2857 85.9646 80.6702 86.4892L86.1934 94.0245Z" fill="black"/>
<path d="M73.729 93.3424L73.792 93.5345C74.0055 94.1859 74.1087 94.8206 74.1016 95.4385C74.0963 96.0619 73.9828 96.6371 73.7609 97.1641C73.5352 97.6984 73.2005 98.1633 72.7566 98.5586C72.309 98.9613 71.7562 99.2686 71.098 99.4806C70.4344 99.6943 69.8048 99.7678 69.2095 99.701C68.6104 99.6416 68.0612 99.4615 67.5618 99.1606C67.0642 98.8654 66.6284 98.4671 66.2544 97.9658C65.8823 97.4701 65.5895 96.8965 65.3759 96.2451L65.313 96.053C65.0994 95.4015 64.9962 94.7669 65.0033 94.149C65.0104 93.5312 65.1268 92.9551 65.3524 92.4207C65.5799 91.8919 65.9147 91.4271 66.3567 91.0262C66.8005 90.6308 67.3515 90.3272 68.0096 90.1152C68.6733 89.9015 69.3047 89.8243 69.9038 89.8838C70.4992 89.9506 71.0456 90.1316 71.5432 90.4269C72.0426 90.7277 72.4784 91.126 72.8505 91.6217C73.2226 92.1174 73.5155 92.691 73.729 93.3424ZM71.7758 94.1839L71.7129 93.9918C71.5796 93.5853 71.4119 93.2146 71.2096 92.8796C71.0073 92.5447 70.7722 92.2695 70.5043 92.0542C70.2364 91.8388 69.9374 91.6981 69.6075 91.632C69.2775 91.5659 68.9201 91.5948 68.5353 91.7188C68.1616 91.8391 67.8637 92.0213 67.6415 92.2652C67.4137 92.5109 67.2553 92.7989 67.1663 93.1292C67.0772 93.4595 67.0502 93.8191 67.0852 94.208C67.1146 94.5986 67.1959 94.9972 67.3291 95.4036L67.3921 95.5957C67.5235 95.9966 67.6922 96.3608 67.8983 96.6884C68.1006 97.0234 68.3394 97.3005 68.6147 97.5196C68.8844 97.7405 69.1842 97.884 69.5142 97.9501C69.8404 98.0235 70.1932 97.9992 70.5724 97.877C70.9517 97.7549 71.2543 97.5682 71.4802 97.3169C71.7024 97.073 71.8571 96.7831 71.9443 96.4472C72.0315 96.1113 72.0576 95.749 72.0227 95.3601C71.9895 94.9768 71.9072 94.5847 71.7758 94.1839Z" fill="black"/>
<path d="M43.5141 91.8568L41.25 98.7638L39.2255 98.1117L42.1877 89.0751L44.0951 89.6894L43.5141 91.8568ZM42.6137 93.6444L41.9306 93.4428C42.1295 92.8359 42.3798 92.2979 42.6816 91.8288C42.9816 91.3652 43.333 90.989 43.736 90.7002C44.1371 90.417 44.5899 90.2397 45.0943 90.1682C45.5968 90.1023 46.1521 90.1672 46.76 90.363C47.2006 90.5049 47.5839 90.6992 47.9101 90.9458C48.2362 91.1924 48.4893 91.4925 48.6694 91.8459C48.8439 92.1976 48.9334 92.6112 48.9379 93.0866C48.9424 93.562 48.847 94.0976 48.6517 94.6934L46.738 100.531L44.7219 99.882L46.641 94.0273C46.7487 93.6988 46.8 93.4106 46.7949 93.1628C46.788 92.9205 46.7395 92.711 46.6495 92.5342C46.5594 92.3575 46.4343 92.2125 46.274 92.0994C46.1138 91.9862 45.9333 91.8973 45.7325 91.8327C45.1581 91.6476 44.6698 91.6135 44.2678 91.7302C43.8583 91.8507 43.5209 92.0806 43.2555 92.4199C42.9846 92.7574 42.7706 93.1655 42.6137 93.6444Z" fill="black"/>
<path d="M32.9655 92.3678L37.3872 86.3353L39.106 87.5731L33.4841 95.2432L31.8651 94.0772L32.9655 92.3678ZM34.6751 90.6747L35.2262 91.0824C34.8231 91.6225 34.3815 92.0663 33.9016 92.4138C33.4169 92.7579 32.9219 92.9971 32.4167 93.1314C31.9066 93.2624 31.3997 93.28 30.8959 93.1843C30.3887 93.0934 29.9045 92.8819 29.4433 92.5497C29.0724 92.2826 28.7753 91.9892 28.552 91.6695C28.3204 91.3511 28.1808 91.0015 28.1331 90.6206C28.0806 90.2362 28.1307 89.821 28.2833 89.3749C28.4325 88.9336 28.6993 88.4506 29.0838 87.9261L32.7157 82.971L34.4416 84.214L30.8045 89.1761C30.5343 89.5447 30.376 89.8748 30.3295 90.1662C30.2747 90.4589 30.3167 90.7238 30.4553 90.9608C30.5858 91.1991 30.8007 91.4262 31.1003 91.6419C31.3951 91.8542 31.704 91.9828 32.027 92.0277C32.3501 92.0726 32.6704 92.047 32.9879 91.9507C33.3007 91.8511 33.602 91.6926 33.892 91.4754C34.182 91.2582 34.443 90.9913 34.6751 90.6747Z" fill="black"/>
<path d="M24.7771 77.4965C24.606 77.6198 24.4826 77.7736 24.4071 77.958C24.3268 78.1458 24.3179 78.4012 24.3805 78.7244C24.4395 79.0429 24.5913 79.468 24.8356 79.9996C25.0432 80.4711 25.2099 80.9214 25.3356 81.3507C25.4532 81.7787 25.51 82.1783 25.506 82.5494C25.5019 82.9206 25.4248 83.2613 25.2745 83.5717C25.1243 83.8821 24.8875 84.1537 24.5642 84.3865C24.2504 84.6125 23.903 84.758 23.522 84.823C23.141 84.888 22.75 84.8699 22.349 84.7688C21.948 84.6677 21.5523 84.4797 21.162 84.2049C20.7682 83.9253 20.405 83.5586 20.0725 83.105C19.6014 82.4622 19.3072 81.8329 19.1899 81.217C19.0644 80.5998 19.097 80.0348 19.2878 79.5219C19.4737 79.0125 19.7973 78.5917 20.2585 78.2596L21.5107 79.968C21.3063 80.1152 21.1542 80.3042 21.0545 80.5348C20.9466 80.7642 20.9124 81.0199 20.952 81.3018C20.9868 81.5872 21.1168 81.8835 21.342 82.1907C21.5567 82.4837 21.7827 82.6928 22.0198 82.8181C22.2487 82.9421 22.4715 82.9983 22.6881 82.9866C22.9013 82.9703 23.0959 82.8987 23.2718 82.772C23.4002 82.6796 23.4994 82.5721 23.5693 82.4495C23.6311 82.3256 23.6615 82.1738 23.6604 81.994C23.6547 81.8176 23.613 81.6021 23.5353 81.3476C23.4543 81.0883 23.3327 80.7787 23.1706 80.4189C22.8647 79.7438 22.6551 79.1258 22.5418 78.5648C22.4202 78.0025 22.4284 77.4984 22.5665 77.0524C22.6997 76.6098 22.997 76.2225 23.4582 75.8903C23.8005 75.6438 24.168 75.491 24.5607 75.4321C24.9451 75.3718 25.3424 75.4034 25.7525 75.5269C26.1579 75.6537 26.5579 75.8675 26.9526 76.1681C27.3438 76.464 27.7126 76.8482 28.059 77.3208C28.5682 78.0155 28.8759 78.6929 28.9819 79.353C29.0833 80.0165 29.0308 80.6139 28.8245 81.1451C28.6099 81.6751 28.2911 82.0924 27.8679 82.3972L26.6573 80.7455C26.962 80.4972 27.1523 80.2266 27.2282 79.9336C27.2958 79.6394 27.2859 79.3433 27.1983 79.0454C27.1024 78.7462 26.961 78.469 26.7739 78.2138C26.5488 77.9066 26.3196 77.6781 26.0863 77.5284C25.8483 77.3821 25.6182 77.306 25.3959 77.3C25.1688 77.2975 24.9626 77.363 24.7771 77.4965Z" fill="black"/>
<path d="M16.0418 71.6303L26.8338 68.1546L27.4936 70.1673L14.9615 74.2035L14.3537 72.3494L16.0418 71.6303ZM16.8139 64.872L16.9896 64.8154C17.6477 64.6035 18.284 64.4847 18.8984 64.4592C19.5054 64.4299 20.0673 64.4982 20.5842 64.6642C21.0936 64.8264 21.5339 65.0878 21.9049 65.4484C22.2759 65.8091 22.5545 66.2733 22.7407 66.8413C22.925 67.4036 22.9834 67.9296 22.9157 68.4192C22.8407 68.9051 22.6582 69.3547 22.3682 69.7682C22.0783 70.1817 21.7032 70.561 21.2429 70.9063C20.7753 71.2477 20.241 71.5552 19.64 71.8288L18.9624 72.047C18.275 72.1884 17.6325 72.2599 17.0349 72.2615C16.4355 72.2576 15.8932 72.1737 15.4078 72.0099C14.9225 71.8462 14.5055 71.5896 14.1566 71.2403C13.8078 70.8909 13.5422 70.4379 13.3596 69.8811C13.1735 69.3132 13.1199 68.7733 13.1988 68.2616C13.2721 67.7517 13.463 67.2809 13.7716 66.8491C14.0746 66.4191 14.4859 66.0373 15.0055 65.7037C15.5196 65.372 16.1224 65.0947 16.8139 64.872ZM17.6494 66.8282L17.4737 66.8848C17.0554 67.0195 16.6806 67.1833 16.3492 67.3762C16.0122 67.5709 15.7345 67.7958 15.5159 68.0509C15.2974 68.3059 15.1557 68.5886 15.0909 68.8987C15.0187 69.2052 15.0419 69.5393 15.1606 69.9012C15.2774 70.2576 15.4391 70.5441 15.6458 70.7607C15.8468 70.9791 16.0816 71.1404 16.3502 71.2448C16.6187 71.3491 16.9107 71.4028 17.2261 71.4059C17.536 71.4107 17.8619 71.3796 18.2037 71.3126L19.8267 70.7899C20.2064 70.5938 20.537 70.3611 20.8187 70.0918C21.1004 69.8226 21.2933 69.5081 21.3974 69.1483C21.494 68.7848 21.4657 68.3692 21.3124 67.9015C21.1937 67.5395 21.0144 67.2557 20.7743 67.0499C20.5341 66.844 20.251 66.7044 19.9248 66.6309C19.5911 66.5537 19.2303 66.5345 18.8422 66.5733C18.4541 66.6121 18.0565 66.6971 17.6494 66.8282Z" fill="black"/>
<path d="M8.5 55.4365H22V57.5635H8.5V55.4365Z" fill="black"/>
<path d="M21.5361 43.1459L17.2194 41.7556C16.8959 41.6514 16.5978 41.6201 16.3253 41.6615C16.0527 41.703 15.813 41.8228 15.6063 42.0209C15.4014 42.2135 15.2405 42.4879 15.1237 42.8442C15.016 43.1727 14.9787 43.4747 15.0117 43.75C15.0448 44.0254 15.1343 44.2604 15.2801 44.4551C15.4259 44.6498 15.6187 44.7858 15.8585 44.863L15.2015 46.8674C14.8446 46.7525 14.5271 46.5548 14.249 46.2744C13.9709 45.994 13.7547 45.6474 13.6002 45.2344C13.4458 44.8215 13.3681 44.3625 13.3672 43.8575C13.3663 43.3524 13.4589 42.8159 13.645 42.248C13.8677 41.5687 14.1792 41.0042 14.5794 40.5545C14.9814 40.0992 15.4632 39.7957 16.0247 39.6441C16.5824 39.4852 17.207 39.5171 17.8986 39.7398L21.9226 41.0358C22.3353 41.1688 22.7153 41.2604 23.0626 41.3107C23.4062 41.3536 23.7161 41.358 23.9925 41.3239L24.1263 41.367L23.4501 43.4299C23.2016 43.4545 22.9008 43.4408 22.548 43.3887C22.1913 43.3292 21.8541 43.2483 21.5361 43.1459ZM17.9426 41.6654L19.1946 42.0501L18.721 43.495C18.5987 43.868 18.5273 44.2082 18.5067 44.5155C18.4805 44.821 18.5034 45.09 18.5752 45.3224C18.647 45.5548 18.7622 45.7489 18.9208 45.9046C19.0794 46.0604 19.2786 46.1768 19.5184 46.2541C19.7582 46.3313 19.9968 46.3466 20.2341 46.2999C20.4658 46.2514 20.6721 46.1393 20.853 45.9637C21.0357 45.7825 21.1772 45.5387 21.2776 45.2325C21.4127 44.8205 21.4467 44.4344 21.3798 44.0743C21.3091 43.7068 21.1803 43.3945 20.9933 43.1373C20.8007 42.8783 20.5947 42.7073 20.3753 42.6243L21.484 42.2611C21.6907 42.4016 21.8987 42.5948 22.1079 42.8407C22.3171 43.0866 22.4987 43.379 22.6528 43.7179C22.8031 44.0495 22.8942 44.4204 22.9261 44.8309C22.9599 45.2357 22.9001 45.672 22.7468 46.1397C22.5534 46.7299 22.2638 47.2183 21.878 47.605C21.4867 47.9899 21.0474 48.2485 20.5601 48.3809C20.0672 48.5114 19.5641 48.4941 19.051 48.3288C18.5714 48.1744 18.1767 47.9488 17.867 47.652C17.5536 47.3479 17.3289 46.9801 17.1929 46.5485C17.0587 46.1113 17.0114 45.6159 17.0511 45.0624C17.0851 44.507 17.2098 43.9009 17.4252 43.2438L17.9426 41.6654Z" fill="black"/>
<path d="M26.8972 32.6114C26.726 32.4881 26.5403 32.4193 26.34 32.4051C26.1351 32.3874 25.8872 32.458 25.5964 32.6169C25.3091 32.771 24.9482 33.0453 24.5136 33.44C24.1254 33.7814 23.7447 34.0777 23.3717 34.3289C22.9974 34.572 22.6316 34.749 22.2742 34.8599C21.9169 34.9708 21.5661 35.0033 21.2219 34.9576C20.8776 34.9119 20.5439 34.7726 20.2205 34.5397C19.9067 34.3137 19.6598 34.0312 19.4797 33.6921C19.2996 33.353 19.1962 32.9789 19.1692 32.5696C19.1423 32.1603 19.2004 31.7292 19.3435 31.2763C19.4901 30.8186 19.7296 30.363 20.0622 29.9093C20.5333 29.2666 21.0462 28.7948 21.6009 28.4939C22.1543 28.1848 22.7065 28.041 23.2575 28.0623C23.8037 28.0802 24.3075 28.2553 24.7687 28.5874L23.5165 30.2958C23.312 30.1486 23.0837 30.0636 22.8316 30.0409C22.5782 30.01 22.3223 30.0568 22.064 30.1812C21.8009 30.3023 21.5568 30.5164 21.3317 30.8236C21.1169 31.1166 20.9861 31.3942 20.9391 31.6564C20.8909 31.9105 20.9059 32.1379 20.984 32.3386C21.0656 32.5345 21.1943 32.6958 21.3703 32.8225C21.4986 32.915 21.6324 32.9752 21.7717 33.0033C21.9096 33.0232 22.0647 33.0049 22.2369 32.9484C22.4043 32.8885 22.5982 32.7826 22.8184 32.6307C23.0422 32.4742 23.3016 32.2639 23.5968 31.9999C24.15 31.503 24.6781 31.1144 25.1814 30.8342C25.6833 30.5458 26.1696 30.3978 26.6401 30.3901C27.106 30.379 27.5695 30.5395 28.0307 30.8716C28.373 31.1182 28.6331 31.4174 28.811 31.7694C28.9876 32.1132 29.0801 32.4975 29.0884 32.9222C29.0919 33.3436 29.0105 33.7867 28.844 34.2517C28.681 34.7119 28.4263 35.1784 28.0799 35.6509C27.5707 36.3456 27.0159 36.845 26.4153 37.149C25.81 37.4495 25.2206 37.5846 24.6471 37.5543C24.0723 37.5158 23.5734 37.3442 23.1502 37.0395L24.3608 35.3878C24.6933 35.5983 25.0117 35.6941 25.3162 35.6751C25.6194 35.648 25.9004 35.5471 26.1592 35.3724C26.4167 35.1896 26.639 34.9706 26.826 34.7154C27.0512 34.4082 27.1995 34.1216 27.2711 33.8554C27.3379 33.5858 27.3399 33.3454 27.2769 33.1339C27.2092 32.9191 27.0826 32.7449 26.8972 32.6114Z" fill="black"/>
<path d="M26.4537 17.9028L34.4346 28.7912L32.7229 30.0239L24.742 19.1355L26.4537 17.9028ZM31.1162 24.8883L30.5547 25.2819C30.1715 24.7491 29.8867 24.2069 29.7003 23.6553C29.5186 23.1002 29.4373 22.563 29.4563 22.0439C29.4766 21.5166 29.6064 21.0296 29.8457 20.583C30.0814 20.1316 30.4252 19.7432 30.8769 19.4179C31.2572 19.144 31.6377 18.9494 32.0182 18.8342C32.4035 18.7156 32.7927 18.6917 33.1859 18.7623C33.5756 18.8282 33.9626 19.0044 34.3469 19.2908C34.7325 19.5691 35.1176 19.9705 35.5021 20.4951L39.1132 25.4218L37.3872 26.6647L33.7657 21.7239C33.4955 21.3553 33.2261 21.1016 32.9574 20.963C32.6935 20.8209 32.4246 20.7763 32.1509 20.829C31.8737 20.877 31.5877 21.0071 31.2929 21.2194C30.9838 21.442 30.7555 21.7003 30.6078 21.9944C30.4649 22.2851 30.3929 22.5932 30.3919 22.9189C30.3909 23.2446 30.4521 23.5759 30.5757 23.9129C30.704 24.2466 30.8841 24.5717 31.1162 24.8883Z" fill="black"/>
<path d="M43.2669 10.1333L45.8777 18.7753L44.1543 19.3303L41.1336 10.8204L43.2669 10.1333ZM44.749 22.0474C44.6486 21.7411 44.665 21.4527 44.7983 21.182C44.9353 20.9039 45.185 20.7065 45.5476 20.5898C45.9045 20.4748 46.2208 20.4899 46.4966 20.635C46.7704 20.7746 46.9576 20.9975 47.058 21.3037C47.1547 21.5988 47.1345 21.8854 46.9975 22.1634C46.8587 22.4359 46.6108 22.6296 46.2539 22.7446C45.8914 22.8613 45.5732 22.8499 45.2993 22.7104C45.0291 22.5635 44.8457 22.3424 44.749 22.0474Z" fill="black"/>
</svg>
