<svg width="1406" height="290" viewBox="0 0 1406 290" fill="none" xmlns="http://www.w3.org/2000/svg">
<g id="collections">
<g id="letter-c">
<g id="C">
<path d="M6.86314 145.064C6.86314 131.683 9.75814 119.781 15.5481 109.359C21.3381 98.8083 29.3798 90.638 39.6731 84.848C50.0951 78.9293 61.8681 75.97 74.9921 75.97C91.0755 75.97 104.843 80.216 116.294 88.708C127.745 97.2 135.401 108.78 139.261 123.448H102.977C100.275 117.787 96.4151 113.476 91.3971 110.517C86.5078 107.558 80.9108 106.078 74.6061 106.078C64.4415 106.078 56.2068 109.616 49.9021 116.693C43.5975 123.77 40.4451 133.227 40.4451 145.064C40.4451 156.901 43.5975 166.358 49.9021 173.435C56.2068 180.512 64.4415 184.05 74.6061 184.05C80.9108 184.05 86.5078 182.57 91.3971 179.611C96.4151 176.652 100.275 172.341 102.977 166.68H139.261C135.401 181.348 127.745 192.928 116.294 201.42C104.843 209.783 91.0755 213.965 74.9921 213.965C61.8681 213.965 50.0951 211.07 39.6731 205.28C29.3798 199.361 21.3381 191.191 15.5481 180.769C9.75814 170.347 6.86314 158.445 6.86314 145.064Z" fill="#D1CDC0"/>
<path d="M15.5481 109.359L16.1601 109.699L16.1618 109.696L15.5481 109.359ZM39.6731 84.848L40.0163 85.4581L40.0188 85.4567L39.6731 84.848ZM116.294 88.708L116.711 88.1457L116.711 88.1457L116.294 88.708ZM139.261 123.448V124.148H140.169L139.938 123.27L139.261 123.448ZM102.977 123.448L102.345 123.75L102.536 124.148H102.977V123.448ZM91.3971 110.517L91.0347 111.116L91.0416 111.12L91.3971 110.517ZM49.9021 116.693L50.4248 117.159L50.4248 117.159L49.9021 116.693ZM49.9021 173.435L49.3795 173.901L49.9021 173.435ZM91.3971 179.611L91.0415 179.008L91.0347 179.012L91.3971 179.611ZM102.977 166.68V165.98H102.536L102.345 166.378L102.977 166.68ZM139.261 166.68L139.938 166.858L140.169 165.98H139.261V166.68ZM116.294 201.42L116.707 201.985L116.711 201.982L116.294 201.42ZM39.6731 205.28L39.3242 205.887L39.3332 205.892L39.6731 205.28ZM15.5481 180.769L16.1601 180.429L16.1601 180.429L15.5481 180.769ZM7.56314 145.064C7.56314 131.787 10.4346 120.005 16.1601 109.699L14.9362 109.019C9.08166 119.557 6.16314 131.579 6.16314 145.064H7.56314ZM16.1618 109.696C21.8902 99.2574 29.8392 91.1827 40.0163 85.4581L39.33 84.2379C28.9204 90.0932 20.7861 98.3593 14.9345 109.022L16.1618 109.696ZM40.0188 85.4567C50.3256 79.6034 61.9775 76.67 74.9921 76.67V75.27C61.7588 75.27 49.8647 78.2552 39.3275 84.2393L40.0188 85.4567ZM74.9921 76.67C90.9455 76.67 104.562 80.879 115.877 89.2703L116.711 88.1457C105.124 79.553 91.2055 75.27 74.9921 75.27V76.67ZM115.877 89.2703C127.192 97.6612 134.762 109.101 138.584 123.626L139.938 123.27C136.04 108.459 128.299 96.7388 116.711 88.1457L115.877 89.2703ZM139.261 122.748H102.977V124.148H139.261V122.748ZM103.609 123.146C100.852 117.37 96.9 112.95 91.7527 109.914L91.0416 111.12C95.9302 114.003 99.6986 118.204 102.345 123.75L103.609 123.146ZM91.7596 109.918C86.7499 106.886 81.025 105.378 74.6061 105.378V106.778C80.7966 106.778 86.2657 108.229 91.0347 111.116L91.7596 109.918ZM74.6061 105.378C64.2581 105.378 55.8275 108.99 49.3795 116.227L50.4248 117.159C56.5862 110.243 64.6248 106.778 74.6061 106.778V105.378ZM49.3795 116.227C42.9342 123.462 39.7451 133.099 39.7451 145.064H41.1451C41.1451 133.354 44.2608 124.077 50.4248 117.159L49.3795 116.227ZM39.7451 145.064C39.7451 157.029 42.9342 166.666 49.3795 173.901L50.4248 172.969C44.2608 166.051 41.1451 156.774 41.1451 145.064H39.7451ZM49.3795 173.901C55.8275 181.138 64.2581 184.75 74.6061 184.75V183.35C64.6248 183.35 56.5862 179.885 50.4248 172.969L49.3795 173.901ZM74.6061 184.75C81.025 184.75 86.7499 183.242 91.7596 180.21L91.0347 179.012C86.2657 181.899 80.7966 183.35 74.6061 183.35V184.75ZM91.7527 180.214C96.9 177.178 100.852 172.758 103.609 166.982L102.345 166.378C99.6986 171.924 95.9302 176.125 91.0416 179.008L91.7527 180.214ZM102.977 167.38H139.261V165.98H102.977V167.38ZM138.584 166.502C134.762 181.027 127.192 192.467 115.877 200.858L116.711 201.982C128.299 193.389 136.04 181.669 139.938 166.858L138.584 166.502ZM115.881 200.855C104.566 209.119 90.9478 213.265 74.9921 213.265V214.665C91.2031 214.665 105.12 210.448 116.707 201.985L115.881 200.855ZM74.9921 213.265C61.9748 213.265 50.3209 210.395 40.0131 204.668L39.3332 205.892C49.8694 211.745 61.7615 214.665 74.9921 214.665V213.265ZM40.0221 204.673C29.8395 198.818 21.8885 190.74 16.1601 180.429L14.9362 181.109C20.7877 191.642 28.9201 199.904 39.3242 205.887L40.0221 204.673ZM16.1601 180.429C10.4346 170.123 7.56314 158.341 7.56314 145.064H6.16314C6.16314 158.549 9.08166 170.571 14.9362 181.109L16.1601 180.429Z" fill="#423D3D"/>
</g>
</g>
<g id="letter-o">
<g id="O">
<path d="M232.18 214.351C219.442 214.351 207.734 211.392 197.054 205.473C186.504 199.554 178.076 191.32 171.771 180.769C165.595 170.09 162.507 158.124 162.507 144.871C162.507 131.618 165.595 119.717 171.771 109.166C178.076 98.6153 186.504 90.3807 197.054 84.462C207.734 78.5433 219.442 75.584 232.18 75.584C244.918 75.584 256.563 78.5433 267.113 84.462C277.793 90.3807 286.156 98.6153 292.203 109.166C298.379 119.717 301.467 131.618 301.467 144.871C301.467 158.124 298.379 170.09 292.203 180.769C286.027 191.32 277.664 199.554 267.113 205.473C256.563 211.392 244.918 214.351 232.18 214.351ZM232.18 184.243C242.988 184.243 251.609 180.64 258.042 173.435C264.604 166.23 267.885 156.708 267.885 144.871C267.885 132.905 264.604 123.384 258.042 116.307C251.609 109.102 242.988 105.499 232.18 105.499C221.244 105.499 212.494 109.037 205.932 116.114C199.499 123.191 196.282 132.776 196.282 144.871C196.282 156.837 199.499 166.423 205.932 173.628C212.494 180.705 221.244 184.243 232.18 184.243Z" fill="#D1CDC0"/>
<path d="M197.054 205.473L196.712 206.084L196.715 206.085L197.054 205.473ZM171.771 180.769L171.165 181.119L171.17 181.128L171.771 180.769ZM171.771 109.166L171.17 108.807L171.167 108.812L171.771 109.166ZM197.054 84.462L196.715 83.8497L196.712 83.8515L197.054 84.462ZM267.113 84.462L266.771 85.0725L266.774 85.0743L267.113 84.462ZM292.203 109.166L291.596 109.514L291.599 109.52L292.203 109.166ZM292.203 180.769L292.807 181.123L292.809 181.119L292.203 180.769ZM267.113 205.473L267.456 206.083L267.456 206.083L267.113 205.473ZM258.042 173.435L257.525 172.964L257.52 172.969L258.042 173.435ZM258.042 116.307L257.52 116.773L257.529 116.783L258.042 116.307ZM205.932 116.114L205.419 115.638L205.414 115.643L205.932 116.114ZM205.932 173.628L205.41 174.094L205.419 174.104L205.932 173.628ZM232.18 213.651C219.556 213.651 207.964 210.719 197.394 204.861L196.715 206.085C207.503 212.064 219.329 215.051 232.18 215.051V213.651ZM197.397 204.862C186.954 199.005 178.615 190.857 172.372 180.41L171.17 181.128C177.537 191.782 186.053 200.104 196.712 206.083L197.397 204.862ZM172.377 180.419C166.267 169.854 163.207 158.01 163.207 144.871H161.807C161.807 158.237 164.923 170.326 171.165 181.119L172.377 180.419ZM163.207 144.871C163.207 131.732 166.267 119.954 172.375 109.52L171.167 108.812C164.923 119.479 161.807 131.505 161.807 144.871H163.207ZM172.372 109.525C178.615 99.0776 186.954 90.9304 197.397 85.0725L196.712 83.8515C186.053 89.831 177.537 98.1531 171.17 108.807L172.372 109.525ZM197.394 85.0743C207.964 79.2157 219.556 76.284 232.18 76.284V74.884C219.329 74.884 207.503 77.871 196.715 83.8497L197.394 85.0743ZM232.18 76.284C244.805 76.284 256.33 79.2157 266.771 85.0725L267.456 83.8515C256.795 77.871 245.032 74.884 232.18 74.884V76.284ZM266.774 85.0743C277.342 90.9312 285.612 99.0748 291.596 109.514L292.811 108.818C286.699 98.1559 278.243 89.8301 267.453 83.8497L266.774 85.0743ZM291.599 109.52C297.707 119.954 300.767 131.732 300.767 144.871H302.167C302.167 131.505 299.051 119.479 292.807 108.812L291.599 109.52ZM300.767 144.871C300.767 158.01 297.707 169.854 291.597 180.419L292.809 181.119C299.051 170.326 302.167 158.237 302.167 144.871H300.767ZM291.599 180.415C285.485 190.86 277.212 199.005 266.771 204.862L267.456 206.083C278.116 200.103 286.569 191.779 292.807 181.123L291.599 180.415ZM266.771 204.862C256.33 210.719 244.805 213.651 232.18 213.651V215.051C245.032 215.051 256.795 212.064 267.456 206.083L266.771 204.862ZM232.18 184.943C243.161 184.943 251.982 181.274 258.564 173.901L257.52 172.969C251.236 180.007 242.815 183.543 232.18 183.543V184.943ZM258.56 173.906C265.263 166.546 268.585 156.843 268.585 144.871H267.185C267.185 156.573 263.945 165.914 257.525 172.964L258.56 173.906ZM268.585 144.871C268.585 132.773 265.265 123.066 258.555 115.831L257.529 116.783C263.944 123.701 267.185 133.037 267.185 144.871H268.585ZM258.564 115.841C251.982 108.468 243.161 104.799 232.18 104.799V106.199C242.815 106.199 251.236 109.735 257.52 116.773L258.564 115.841ZM232.18 104.799C221.077 104.799 212.132 108.399 205.419 115.638L206.445 116.59C212.857 109.676 221.41 106.199 232.18 106.199V104.799ZM205.414 115.643C198.835 122.88 195.582 132.65 195.582 144.871H196.982C196.982 132.903 200.163 123.501 206.45 116.585L205.414 115.643ZM195.582 144.871C195.582 156.966 198.837 166.732 205.41 174.094L206.454 173.162C200.161 166.113 196.982 156.708 196.982 144.871H195.582ZM205.419 174.104C212.132 181.343 221.077 184.943 232.18 184.943V183.543C221.41 183.543 212.857 180.066 206.445 173.152L205.419 174.104Z" fill="#423D3D"/>
</g>
</g>
<g id="letter-l">
<g id="L">
<path d="M360.981 187.524H404.213V213H327.978V77.514H360.981V187.524Z" fill="#D1CDC0"/>
<path d="M360.981 187.524H360.281V188.224H360.981V187.524ZM404.213 187.524H404.913V186.824H404.213V187.524ZM404.213 213V213.7H404.913V213H404.213ZM327.978 213H327.278V213.7H327.978V213ZM327.978 77.514V76.814H327.278V77.514H327.978ZM360.981 77.514H361.681V76.814H360.981V77.514ZM360.981 188.224H404.213V186.824H360.981V188.224ZM403.513 187.524V213H404.913V187.524H403.513ZM404.213 212.3H327.978V213.7H404.213V212.3ZM328.678 213V77.514H327.278V213H328.678ZM327.978 78.214H360.981V76.814H327.978V78.214ZM360.281 77.514V187.524H361.681V77.514H360.281Z" fill="#423D3D"/>
</g>
</g>
<g id="letter-l2">
<g id="L_2">
<path d="M460.981 187.524H504.213V213H427.978V77.514H460.981V187.524Z" fill="#D1CDC0"/>
<path d="M460.981 187.524H460.281V188.224H460.981V187.524ZM504.213 187.524H504.913V186.824H504.213V187.524ZM504.213 213V213.7H504.913V213H504.213ZM427.978 213H427.278V213.7H427.978V213ZM427.978 77.514V76.814H427.278V77.514H427.978ZM460.981 77.514H461.681V76.814H460.981V77.514ZM460.981 188.224H504.213V186.824H460.981V188.224ZM503.513 187.524V213H504.913V187.524H503.513ZM504.213 212.3H427.978V213.7H504.213V212.3ZM428.678 213V77.514H427.278V213H428.678ZM427.978 78.214H460.981V76.814H427.978V78.214ZM460.281 77.514V187.524H461.681V77.514H460.281Z" fill="#423D3D"/>
</g>
</g>
<g id="letter-e">
<g id="E">
<path d="M561.261 103.955V131.361H605.458V156.837H561.261V186.559H611.248V213H528.258V77.514H611.248V103.955H561.261Z" fill="#D1CDC0"/>
<path d="M561.261 103.955V103.255H560.561V103.955H561.261ZM561.261 131.361H560.561V132.061H561.261V131.361ZM605.458 131.361H606.158V130.661H605.458V131.361ZM605.458 156.837V157.537H606.158V156.837H605.458ZM561.261 156.837V156.137H560.561V156.837H561.261ZM561.261 186.559H560.561V187.259H561.261V186.559ZM611.248 186.559H611.948V185.859H611.248V186.559ZM611.248 213V213.7H611.948V213H611.248ZM528.258 213H527.558V213.7H528.258V213ZM528.258 77.514V76.814H527.558V77.514H528.258ZM611.248 77.514H611.948V76.814H611.248V77.514ZM611.248 103.955V104.655H611.948V103.955H611.248ZM560.561 103.955V131.361H561.961V103.955H560.561ZM561.261 132.061H605.458V130.661H561.261V132.061ZM604.758 131.361V156.837H606.158V131.361H604.758ZM605.458 156.137H561.261V157.537H605.458V156.137ZM560.561 156.837V186.559H561.961V156.837H560.561ZM561.261 187.259H611.248V185.859H561.261V187.259ZM610.548 186.559V213H611.948V186.559H610.548ZM611.248 212.3H528.258V213.7H611.248V212.3ZM528.958 213V77.514H527.558V213H528.958ZM528.258 78.214H611.248V76.814H528.258V78.214ZM610.548 77.514V103.955H611.948V77.514H610.548ZM611.248 103.255H561.261V104.655H611.248V103.255Z" fill="#423D3D"/>
</g>
</g>
<g id="letter-c_2">
<g id="C_2">
<path d="M635.863 145.064C635.863 131.683 638.758 119.781 644.548 109.359C650.338 98.8083 658.38 90.638 668.673 84.848C679.095 78.9293 690.868 75.97 703.992 75.97C720.075 75.97 733.843 80.216 745.294 88.708C756.745 97.2 764.401 108.78 768.261 123.448H731.977C729.275 117.787 725.415 113.476 720.397 110.517C715.508 107.558 709.911 106.078 703.606 106.078C693.441 106.078 685.207 109.616 678.902 116.693C672.597 123.77 669.445 133.227 669.445 145.064C669.445 156.901 672.597 166.358 678.902 173.435C685.207 180.512 693.441 184.05 703.606 184.05C709.911 184.05 715.508 182.57 720.397 179.611C725.415 176.652 729.275 172.341 731.977 166.68H768.261C764.401 181.348 756.745 192.928 745.294 201.42C733.843 209.783 720.075 213.965 703.992 213.965C690.868 213.965 679.095 211.07 668.673 205.28C658.38 199.361 650.338 191.191 644.548 180.769C638.758 170.347 635.863 158.445 635.863 145.064Z" fill="#D1CDC0"/>
<path d="M644.548 109.359L645.16 109.699L645.162 109.696L644.548 109.359ZM668.673 84.848L669.016 85.4581L669.019 85.4567L668.673 84.848ZM745.294 88.708L745.711 88.1457L745.711 88.1457L745.294 88.708ZM768.261 123.448V124.148H769.169L768.938 123.27L768.261 123.448ZM731.977 123.448L731.345 123.75L731.536 124.148H731.977V123.448ZM720.397 110.517L720.035 111.116L720.042 111.12L720.397 110.517ZM678.902 116.693L679.425 117.159L679.425 117.159L678.902 116.693ZM678.902 173.435L678.379 173.901L678.902 173.435ZM720.397 179.611L720.042 179.008L720.035 179.012L720.397 179.611ZM731.977 166.68V165.98H731.536L731.345 166.378L731.977 166.68ZM768.261 166.68L768.938 166.858L769.169 165.98H768.261V166.68ZM745.294 201.42L745.707 201.985L745.711 201.982L745.294 201.42ZM668.673 205.28L668.324 205.887L668.333 205.892L668.673 205.28ZM644.548 180.769L645.16 180.429L645.16 180.429L644.548 180.769ZM636.563 145.064C636.563 131.787 639.435 120.005 645.16 109.699L643.936 109.019C638.082 119.557 635.163 131.579 635.163 145.064H636.563ZM645.162 109.696C650.89 99.2574 658.839 91.1827 669.016 85.4581L668.33 84.2379C657.92 90.0932 649.786 98.3593 643.934 109.022L645.162 109.696ZM669.019 85.4567C679.326 79.6034 690.978 76.67 703.992 76.67V75.27C690.759 75.27 678.865 78.2552 668.327 84.2393L669.019 85.4567ZM703.992 76.67C719.945 76.67 733.562 80.879 744.877 89.2703L745.711 88.1457C734.124 79.553 720.206 75.27 703.992 75.27V76.67ZM744.877 89.2703C756.192 97.6612 763.762 109.101 767.584 123.626L768.938 123.27C765.04 108.459 757.299 96.7388 745.711 88.1457L744.877 89.2703ZM768.261 122.748H731.977V124.148H768.261V122.748ZM732.609 123.146C729.852 117.37 725.9 112.95 720.753 109.914L720.042 111.12C724.93 114.003 728.699 118.204 731.345 123.75L732.609 123.146ZM720.76 109.918C715.75 106.886 710.025 105.378 703.606 105.378V106.778C709.797 106.778 715.266 108.229 720.035 111.116L720.76 109.918ZM703.606 105.378C693.258 105.378 684.827 108.99 678.379 116.227L679.425 117.159C685.586 110.243 693.625 106.778 703.606 106.778V105.378ZM678.379 116.227C671.934 123.462 668.745 133.099 668.745 145.064H670.145C670.145 133.354 673.261 124.077 679.425 117.159L678.379 116.227ZM668.745 145.064C668.745 157.029 671.934 166.666 678.379 173.901L679.425 172.969C673.261 166.051 670.145 156.774 670.145 145.064H668.745ZM678.379 173.901C684.827 181.138 693.258 184.75 703.606 184.75V183.35C693.625 183.35 685.586 179.885 679.425 172.969L678.379 173.901ZM703.606 184.75C710.025 184.75 715.75 183.242 720.76 180.21L720.035 179.012C715.266 181.899 709.797 183.35 703.606 183.35V184.75ZM720.753 180.214C725.9 177.178 729.852 172.758 732.609 166.982L731.345 166.378C728.699 171.924 724.93 176.125 720.042 179.008L720.753 180.214ZM731.977 167.38H768.261V165.98H731.977V167.38ZM767.584 166.502C763.762 181.027 756.192 192.467 744.877 200.858L745.711 201.982C757.299 193.389 765.04 181.669 768.938 166.858L767.584 166.502ZM744.881 200.855C733.566 209.119 719.948 213.265 703.992 213.265V214.665C720.203 214.665 734.12 210.448 745.707 201.985L744.881 200.855ZM703.992 213.265C690.975 213.265 679.321 210.395 669.013 204.668L668.333 205.892C678.869 211.745 690.761 214.665 703.992 214.665V213.265ZM669.022 204.673C658.839 198.818 650.889 190.74 645.16 180.429L643.936 181.109C649.788 191.642 657.92 199.904 668.324 205.887L669.022 204.673ZM645.16 180.429C639.435 170.123 636.563 158.341 636.563 145.064H635.163C635.163 158.549 638.082 170.571 643.936 181.109L645.16 180.429Z" fill="#423D3D"/>
</g>
</g>
<g id="letter-t">
<g id="T">
<path d="M894.917 77.514V103.955H859.019V213H826.016V103.955H790.118V77.514H894.917Z" fill="#D1CDC0"/>
<path d="M894.917 77.514H895.617V76.814H894.917V77.514ZM894.917 103.955V104.655H895.617V103.955H894.917ZM859.019 103.955V103.255H858.319V103.955H859.019ZM859.019 213V213.7H859.719V213H859.019ZM826.016 213H825.316V213.7H826.016V213ZM826.016 103.955H826.716V103.255H826.016V103.955ZM790.118 103.955H789.418V104.655H790.118V103.955ZM790.118 77.514V76.814H789.418V77.514H790.118ZM894.217 77.514V103.955H895.617V77.514H894.217ZM894.917 103.255H859.019V104.655H894.917V103.255ZM858.319 103.955V213H859.719V103.955H858.319ZM859.019 212.3H826.016V213.7H859.019V212.3ZM826.716 213V103.955H825.316V213H826.716ZM826.016 103.255H790.118V104.655H826.016V103.255ZM790.818 103.955V77.514H789.418V103.955H790.818ZM790.118 78.214H894.917V76.814H790.118V78.214Z" fill="#423D3D"/>
</g>
</g>
<g id="letter-i">
<g id="I">
<path d="M953.009 77.514V213H920.006V77.514H953.009Z" fill="#D1CDC0"/>
<path d="M953.009 77.514H953.709V76.814H953.009V77.514ZM953.009 213V213.7H953.709V213H953.009ZM920.006 213H919.306V213.7H920.006V213ZM920.006 77.514V76.814H919.306V77.514H920.006ZM952.309 77.514V213H953.709V77.514H952.309ZM953.009 212.3H920.006V213.7H953.009V212.3ZM920.706 213V77.514H919.306V213H920.706ZM920.006 78.214H953.009V76.814H920.006V78.214Z" fill="#423D3D"/>
</g>
</g>
<g id="letter-o2">
<g id="O_2">
<path d="M1049.18 214.351C1036.44 214.351 1024.73 211.392 1014.05 205.473C1003.5 199.554 995.076 191.32 988.771 180.769C982.595 170.09 979.507 158.124 979.507 144.871C979.507 131.618 982.595 119.717 988.771 109.166C995.076 98.6153 1003.5 90.3807 1014.05 84.462C1024.73 78.5433 1036.44 75.584 1049.18 75.584C1061.92 75.584 1073.56 78.5433 1084.11 84.462C1094.79 90.3807 1103.16 98.6153 1109.2 109.166C1115.38 119.717 1118.47 131.618 1118.47 144.871C1118.47 158.124 1115.38 170.09 1109.2 180.769C1103.03 191.32 1094.66 199.554 1084.11 205.473C1073.56 211.392 1061.92 214.351 1049.18 214.351ZM1049.18 184.243C1059.99 184.243 1068.61 180.64 1075.04 173.435C1081.6 166.23 1084.89 156.708 1084.89 144.871C1084.89 132.905 1081.6 123.384 1075.04 116.307C1068.61 109.102 1059.99 105.499 1049.18 105.499C1038.24 105.499 1029.49 109.037 1022.93 116.114C1016.5 123.191 1013.28 132.776 1013.28 144.871C1013.28 156.837 1016.5 166.423 1022.93 173.628C1029.49 180.705 1038.24 184.243 1049.18 184.243Z" fill="#D1CDC0"/>
<path d="M1014.05 205.473L1013.71 206.084L1013.71 206.085L1014.05 205.473ZM988.771 180.769L988.165 181.119L988.17 181.128L988.771 180.769ZM988.771 109.166L988.17 108.807L988.167 108.812L988.771 109.166ZM1014.05 84.462L1013.71 83.8497L1013.71 83.8515L1014.05 84.462ZM1084.11 84.462L1083.77 85.0725L1083.77 85.0743L1084.11 84.462ZM1109.2 109.166L1108.6 109.514L1108.6 109.52L1109.2 109.166ZM1109.2 180.769L1109.81 181.123L1109.81 181.119L1109.2 180.769ZM1084.11 205.473L1084.46 206.083L1084.46 206.083L1084.11 205.473ZM1075.04 173.435L1074.52 172.964L1074.52 172.969L1075.04 173.435ZM1075.04 116.307L1074.52 116.773L1074.53 116.783L1075.04 116.307ZM1022.93 116.114L1022.42 115.638L1022.41 115.643L1022.93 116.114ZM1022.93 173.628L1022.41 174.094L1022.42 174.104L1022.93 173.628ZM1049.18 213.651C1036.56 213.651 1024.96 210.719 1014.39 204.861L1013.71 206.085C1024.5 212.064 1036.33 215.051 1049.18 215.051V213.651ZM1014.4 204.862C1003.95 199.005 995.615 190.857 989.372 180.41L988.17 181.128C994.537 191.782 1003.05 200.104 1013.71 206.083L1014.4 204.862ZM989.377 180.419C983.267 169.854 980.207 158.01 980.207 144.871H978.807C978.807 158.237 981.923 170.326 988.165 181.119L989.377 180.419ZM980.207 144.871C980.207 131.732 983.267 119.954 989.375 109.52L988.167 108.812C981.923 119.479 978.807 131.505 978.807 144.871H980.207ZM989.372 109.525C995.615 99.0776 1003.95 90.9304 1014.4 85.0725L1013.71 83.8515C1003.05 89.831 994.537 98.1531 988.17 108.807L989.372 109.525ZM1014.39 85.0743C1024.96 79.2157 1036.56 76.284 1049.18 76.284V74.884C1036.33 74.884 1024.5 77.871 1013.71 83.8497L1014.39 85.0743ZM1049.18 76.284C1061.8 76.284 1073.33 79.2157 1083.77 85.0725L1084.46 83.8515C1073.79 77.871 1062.03 74.884 1049.18 74.884V76.284ZM1083.77 85.0743C1094.34 90.9312 1102.61 99.0748 1108.6 109.514L1109.81 108.818C1103.7 98.1559 1095.24 89.8301 1084.45 83.8497L1083.77 85.0743ZM1108.6 109.52C1114.71 119.954 1117.77 131.732 1117.77 144.871H1119.17C1119.17 131.505 1116.05 119.479 1109.81 108.812L1108.6 109.52ZM1117.77 144.871C1117.77 158.01 1114.71 169.854 1108.6 180.419L1109.81 181.119C1116.05 170.326 1119.17 158.237 1119.17 144.871H1117.77ZM1108.6 180.415C1102.49 190.86 1094.21 199.005 1083.77 204.862L1084.46 206.083C1095.12 200.103 1103.57 191.779 1109.81 181.123L1108.6 180.415ZM1083.77 204.862C1073.33 210.719 1061.8 213.651 1049.18 213.651V215.051C1062.03 215.051 1073.79 212.064 1084.46 206.083L1083.77 204.862ZM1049.18 184.943C1060.16 184.943 1068.98 181.274 1075.56 173.901L1074.52 172.969C1068.24 180.007 1059.82 183.543 1049.18 183.543V184.943ZM1075.56 173.906C1082.26 166.546 1085.59 156.843 1085.59 144.871H1084.19C1084.19 156.573 1080.95 165.914 1074.52 172.964L1075.56 173.906ZM1085.59 144.871C1085.59 132.773 1082.26 123.066 1075.56 115.831L1074.53 116.783C1080.94 123.701 1084.19 133.037 1084.19 144.871H1085.59ZM1075.56 115.841C1068.98 108.468 1060.16 104.799 1049.18 104.799V106.199C1059.82 106.199 1068.24 109.735 1074.52 116.773L1075.56 115.841ZM1049.18 104.799C1038.08 104.799 1029.13 108.399 1022.42 115.638L1023.45 116.59C1029.86 109.676 1038.41 106.199 1049.18 106.199V104.799ZM1022.41 115.643C1015.84 122.88 1012.58 132.65 1012.58 144.871H1013.98C1013.98 132.903 1017.16 123.501 1023.45 116.585L1022.41 115.643ZM1012.58 144.871C1012.58 156.966 1015.84 166.732 1022.41 174.094L1023.45 173.162C1017.16 166.113 1013.98 156.708 1013.98 144.871H1012.58ZM1022.42 174.104C1029.13 181.343 1038.08 184.943 1049.18 184.943V183.543C1038.41 183.543 1029.86 180.066 1023.45 173.152L1022.42 174.104Z" fill="#423D3D"/>
</g>
</g>
<g id="letter-n">
<g id="N">
<path d="M1266.61 213H1233.6L1178.41 129.431V213H1145.4V77.514H1178.41L1233.6 161.469V77.514H1266.61V213Z" fill="#D1CDC0"/>
<path d="M1266.61 213V213.7H1267.31V213H1266.61ZM1233.6 213L1233.02 213.386L1233.23 213.7H1233.6V213ZM1178.41 129.431L1178.99 129.045L1177.71 127.101V129.431H1178.41ZM1178.41 213V213.7H1179.11V213H1178.41ZM1145.4 213H1144.7V213.7H1145.4V213ZM1145.4 77.514V76.814H1144.7V77.514H1145.4ZM1178.41 77.514L1178.99 77.1294L1178.78 76.814H1178.41V77.514ZM1233.6 161.469L1233.02 161.854L1234.3 163.808V161.469H1233.6ZM1233.6 77.514V76.814H1232.9V77.514H1233.6ZM1266.61 77.514H1267.31V76.814H1266.61V77.514ZM1266.61 212.3H1233.6V213.7H1266.61V212.3ZM1234.19 212.614L1178.99 129.045L1177.82 129.817L1233.02 213.386L1234.19 212.614ZM1177.71 129.431V213H1179.11V129.431H1177.71ZM1178.41 212.3H1145.4V213.7H1178.41V212.3ZM1146.1 213V77.514H1144.7V213H1146.1ZM1145.4 78.214H1178.41V76.814H1145.4V78.214ZM1177.82 77.8986L1233.02 161.854L1234.19 161.084L1178.99 77.1294L1177.82 77.8986ZM1234.3 161.469V77.514H1232.9V161.469H1234.3ZM1233.6 78.214H1266.61V76.814H1233.6V78.214ZM1265.91 77.514V213H1267.31V77.514H1265.91Z" fill="#423D3D"/>
</g>
</g>
<g id="letter-s">
<g id="S">
<path d="M1348.12 214.351C1338.21 214.351 1329.33 212.743 1321.48 209.526C1313.64 206.309 1307.33 201.549 1302.57 195.244C1297.94 188.939 1295.49 181.348 1295.24 172.47H1330.36C1330.88 177.488 1332.61 181.348 1335.57 184.05C1338.53 186.623 1342.39 187.91 1347.15 187.91C1352.04 187.91 1355.9 186.816 1358.73 184.629C1361.56 182.313 1362.98 179.161 1362.98 175.172C1362.98 171.827 1361.82 169.06 1359.5 166.873C1357.32 164.686 1354.55 162.884 1351.21 161.469C1347.99 160.054 1343.36 158.445 1337.31 156.644C1328.56 153.942 1321.42 151.24 1315.89 148.538C1310.35 145.836 1305.59 141.847 1301.6 136.572C1297.62 131.297 1295.62 124.413 1295.62 115.921C1295.62 103.312 1300.19 93.4687 1309.32 86.392C1318.46 79.1867 1330.36 75.584 1345.03 75.584C1359.96 75.584 1371.99 79.1867 1381.12 86.392C1390.26 93.4687 1395.15 103.376 1395.79 116.114H1360.08C1359.83 111.739 1358.22 108.33 1355.26 105.885C1352.3 103.312 1348.5 102.025 1343.87 102.025C1339.88 102.025 1336.67 103.119 1334.22 105.306C1331.78 107.365 1330.55 110.388 1330.55 114.377C1330.55 118.752 1332.61 122.161 1336.73 124.606C1340.85 127.051 1347.28 129.688 1356.03 132.519C1364.78 135.478 1371.86 138.309 1377.26 141.011C1382.79 143.713 1387.55 147.637 1391.54 152.784C1395.53 157.931 1397.53 164.557 1397.53 172.663C1397.53 180.383 1395.53 187.395 1391.54 193.7C1387.68 200.005 1382.02 205.023 1374.56 208.754C1367.1 212.485 1358.28 214.351 1348.12 214.351Z" fill="#D1CDC0"/>
<path d="M1321.48 209.526L1321.26 210.081L1321.26 210.081L1321.48 209.526ZM1302.57 195.244L1302.09 195.599L1302.09 195.606L1302.57 195.244ZM1295.24 172.47V171.87H1294.62L1294.64 172.487L1295.24 172.47ZM1330.36 172.47L1330.96 172.409L1330.9 171.87H1330.36V172.47ZM1335.57 184.05L1335.17 184.493L1335.17 184.498L1335.18 184.503L1335.57 184.05ZM1358.73 184.629L1359.1 185.104L1359.11 185.099L1359.11 185.093L1358.73 184.629ZM1359.5 166.873L1359.08 167.297L1359.09 167.303L1359.09 167.309L1359.5 166.873ZM1351.21 161.469L1350.96 162.018L1350.97 162.022L1351.21 161.469ZM1337.31 156.644L1337.13 157.217L1337.14 157.219L1337.31 156.644ZM1315.89 148.538L1315.62 149.077L1315.89 148.538ZM1301.6 136.572L1302.08 136.21L1302.08 136.21L1301.6 136.572ZM1309.32 86.392L1309.69 86.8663L1309.7 86.8631L1309.32 86.392ZM1381.12 86.392L1380.75 86.8631L1380.75 86.8663L1381.12 86.392ZM1395.79 116.114V116.714H1396.42L1396.39 116.084L1395.79 116.114ZM1360.08 116.114L1359.48 116.149L1359.52 116.714H1360.08V116.114ZM1355.26 105.885L1354.87 106.338L1354.87 106.343L1354.88 106.348L1355.26 105.885ZM1334.22 105.306L1334.61 105.765L1334.62 105.759L1334.62 105.753L1334.22 105.306ZM1336.73 124.606L1337.04 124.09L1337.04 124.09L1336.73 124.606ZM1356.03 132.519L1356.22 131.951L1356.22 131.948L1356.03 132.519ZM1377.26 141.011L1376.99 141.548L1377 141.55L1377.26 141.011ZM1391.54 152.784L1391.07 153.152L1391.07 153.152L1391.54 152.784ZM1391.54 193.7L1391.04 193.379L1391.03 193.387L1391.54 193.7ZM1374.56 208.754L1374.29 208.217L1374.29 208.217L1374.56 208.754ZM1348.12 213.751C1338.28 213.751 1329.48 212.153 1321.71 208.971L1321.26 210.081C1329.19 213.332 1338.15 214.951 1348.12 214.951V213.751ZM1321.71 208.971C1313.95 205.792 1307.74 201.095 1303.05 194.882L1302.09 195.606C1306.92 202.002 1313.32 206.827 1321.26 210.081L1321.71 208.971ZM1303.05 194.889C1298.5 188.695 1296.09 181.226 1295.84 172.453L1294.64 172.487C1294.9 181.47 1297.37 189.183 1302.09 195.599L1303.05 194.889ZM1295.24 173.07H1330.36V171.87H1295.24V173.07ZM1329.77 172.531C1330.29 177.657 1332.07 181.668 1335.17 184.493L1335.98 183.607C1333.15 181.028 1331.46 177.319 1330.96 172.409L1329.77 172.531ZM1335.18 184.503C1338.27 187.19 1342.28 188.51 1347.15 188.51V187.31C1342.5 187.31 1338.79 186.056 1335.97 183.597L1335.18 184.503ZM1347.15 188.51C1352.13 188.51 1356.13 187.397 1359.1 185.104L1358.37 184.154C1355.67 186.235 1351.96 187.31 1347.15 187.31V188.51ZM1359.11 185.093C1362.1 182.652 1363.58 179.322 1363.58 175.172H1362.38C1362.38 178.999 1361.03 181.974 1358.35 184.165L1359.11 185.093ZM1363.58 175.172C1363.58 171.671 1362.36 168.744 1359.92 166.437L1359.09 167.309C1361.28 169.377 1362.38 171.982 1362.38 175.172H1363.58ZM1359.93 166.449C1357.68 164.198 1354.84 162.357 1351.44 160.916L1350.97 162.022C1354.26 163.412 1356.96 165.173 1359.08 167.297L1359.93 166.449ZM1351.45 160.92C1348.2 159.489 1343.54 157.873 1337.48 156.069L1337.14 157.219C1343.18 159.018 1347.78 160.618 1350.96 162.018L1351.45 160.92ZM1337.49 156.071C1328.75 153.374 1321.65 150.682 1316.15 147.999L1315.62 149.077C1321.19 151.798 1328.37 154.51 1337.13 157.217L1337.49 156.071ZM1316.15 147.999C1310.71 145.341 1306.02 141.416 1302.08 136.21L1301.13 136.934C1305.17 142.279 1310 146.331 1315.62 149.077L1316.15 147.999ZM1302.08 136.21C1298.19 131.065 1296.22 124.32 1296.22 115.921H1295.02C1295.02 124.506 1297.04 131.528 1301.13 136.934L1302.08 136.21ZM1296.22 115.921C1296.22 103.478 1300.72 93.8179 1309.69 86.8663L1308.96 85.9177C1299.66 93.1194 1295.02 103.146 1295.02 115.921H1296.22ZM1309.7 86.8631C1318.7 79.761 1330.46 76.184 1345.03 76.184V74.984C1330.26 74.984 1318.22 78.6123 1308.95 85.9209L1309.7 86.8631ZM1345.03 76.184C1359.86 76.184 1371.75 79.7624 1380.75 86.8631L1381.49 85.9209C1372.22 78.6109 1360.05 74.984 1345.03 74.984V76.184ZM1380.75 86.8663C1389.74 93.8239 1394.55 103.561 1395.19 116.144L1396.39 116.084C1395.74 103.191 1390.78 93.1134 1381.49 85.9177L1380.75 86.8663ZM1395.79 115.514H1360.08V116.714H1395.79V115.514ZM1360.68 116.079C1360.42 111.564 1358.75 107.989 1355.64 105.422L1354.88 106.348C1357.69 108.671 1359.24 111.915 1359.48 116.149L1360.68 116.079ZM1355.65 105.432C1352.56 102.747 1348.62 101.425 1343.87 101.425V102.625C1348.39 102.625 1352.03 103.876 1354.87 106.338L1355.65 105.432ZM1343.87 101.425C1339.77 101.425 1336.4 102.553 1333.82 104.859L1334.62 105.753C1336.93 103.684 1340 102.625 1343.87 102.625V101.425ZM1333.84 104.847C1331.22 107.047 1329.95 110.259 1329.95 114.377H1331.15C1331.15 110.518 1332.33 107.682 1334.61 105.765L1333.84 104.847ZM1329.95 114.377C1329.95 118.987 1332.15 122.581 1336.42 125.122L1337.04 124.09C1333.08 121.741 1331.15 118.517 1331.15 114.377H1329.95ZM1336.42 125.122C1340.6 127.602 1347.09 130.256 1355.85 133.09L1356.22 131.948C1347.48 129.121 1341.1 126.5 1337.04 124.09L1336.42 125.122ZM1355.84 133.087C1364.57 136.042 1371.62 138.863 1376.99 141.548L1377.53 140.474C1372.09 137.755 1364.99 134.915 1356.22 131.951L1355.84 133.087ZM1377 141.55C1382.44 144.21 1387.13 148.073 1391.07 153.152L1392.02 152.416C1387.98 147.201 1383.14 143.216 1377.52 140.472L1377 141.55ZM1391.07 153.152C1394.96 158.169 1396.93 164.657 1396.93 172.663H1398.13C1398.13 164.457 1396.11 157.692 1392.02 152.416L1391.07 153.152ZM1396.93 172.663C1396.93 180.274 1394.96 187.174 1391.04 193.379L1392.05 194.021C1396.1 187.617 1398.13 180.492 1398.13 172.663H1396.93ZM1391.03 193.387C1387.24 199.584 1381.67 204.53 1374.29 208.217L1374.83 209.291C1382.38 205.516 1388.13 200.426 1392.05 194.013L1391.03 193.387ZM1374.29 208.217C1366.93 211.899 1358.21 213.751 1348.12 213.751V214.951C1358.36 214.951 1367.26 213.072 1374.83 209.291L1374.29 208.217Z" fill="#423D3D"/>
</g>
</g>
</g>
</svg>
