<svg width="40" height="40" viewBox="0 0 40 40" fill="none" xmlns="http://www.w3.org/2000/svg">
<path d="M13.1442 3.03159C7.52861 3.03159 2.95898 7.60121 2.95898 13.2168V27.3194C2.95898 32.935 7.52861 37.5046 13.1442 37.5046H27.2468C32.8624 37.5046 37.432 32.935 37.432 27.3194V13.2168C37.432 7.60121 32.8624 3.03159 27.2468 3.03159H13.1442ZM13.1442 4.59854H27.2468C32.0154 4.59854 35.8651 8.44818 35.8651 13.2168V27.3194C35.8651 32.088 32.0154 35.9377 27.2468 35.9377H13.1442C8.37557 35.9377 4.52594 32.088 4.52594 27.3194V13.2168C4.52594 8.44818 8.37557 4.59854 13.1442 4.59854ZM29.5972 9.29941C29.1817 9.29941 28.7831 9.4645 28.4892 9.75836C28.1954 10.0522 28.0303 10.4508 28.0303 10.8664C28.0303 11.282 28.1954 11.6805 28.4892 11.9744C28.7831 12.2682 29.1817 12.4333 29.5972 12.4333C30.0128 12.4333 30.4114 12.2682 30.7053 11.9744C30.9991 11.6805 31.1642 11.282 31.1642 10.8664C31.1642 10.4508 30.9991 10.0522 30.7053 9.75836C30.4114 9.4645 30.0128 9.29941 29.5972 9.29941ZM20.1955 11.6498C15.4451 11.6498 11.5772 15.5177 11.5772 20.2681C11.5772 25.0186 15.4451 28.8864 20.1955 28.8864C24.946 28.8864 28.8138 25.0186 28.8138 20.2681C28.8138 15.5177 24.946 11.6498 20.1955 11.6498ZM20.1955 13.2168C24.0991 13.2168 27.2468 16.3645 27.2468 20.2681C27.2468 24.1717 24.0991 27.3194 20.1955 27.3194C16.2919 27.3194 13.1442 24.1717 13.1442 20.2681C13.1442 16.3645 16.2919 13.2168 20.1955 13.2168Z" fill="black"/>
</svg>
