<svg width="36" height="35" viewBox="0 0 36 35" fill="none" xmlns="http://www.w3.org/2000/svg">
<g clip-path="url(#clip0_426_95)">
<path d="M24.1768 4.68207C20.0424 4.68207 16.6804 7.96936 16.6804 12.0118C16.6804 12.2547 16.7425 12.4924 16.7668 12.73C11.655 12.2521 7.13449 9.84405 4.06413 6.16069C3.92101 5.98378 3.69958 5.88873 3.46734 5.90457C3.23781 5.92041 3.03258 6.04979 2.91916 6.24518C2.27376 7.33039 1.9038 8.5793 1.9038 9.92062C1.9038 11.5445 2.49789 13.031 3.41603 14.2509C3.23781 14.1743 3.04338 14.1321 2.87595 14.0396C2.66262 13.9287 2.40608 13.934 2.19815 14.0555C1.99022 14.1769 1.8633 14.3961 1.8606 14.6311V14.7156C1.8606 17.2055 3.1784 19.368 5.12269 20.6934C5.10109 20.6908 5.07948 20.6987 5.05788 20.6934C4.82024 20.6538 4.57991 20.7357 4.42058 20.9126C4.26126 21.0895 4.20995 21.3351 4.28016 21.5595C5.05248 23.9068 7.02378 25.6996 9.46494 26.3545C7.52065 27.4846 5.26581 28.1499 2.83274 28.1499C2.30617 28.1499 1.80119 28.1235 1.29891 28.0654C0.974865 28.0232 0.664318 28.208 0.556301 28.509C0.445585 28.81 0.567103 29.1454 0.845245 29.3117C3.96422 31.2682 7.66647 32.4168 11.6469 32.4168C18.0981 32.4168 23.1587 29.7817 26.5531 26.0165C29.9475 22.2513 31.7163 17.3613 31.7163 12.7934C31.7163 12.6006 31.7001 12.4132 31.6947 12.223C32.9612 11.2751 34.0927 10.1635 34.9784 8.86446C35.1539 8.61362 35.135 8.27829 34.9325 8.04594C34.7327 7.81358 34.3951 7.74229 34.1143 7.87167C33.7578 8.02745 33.3419 8.0433 32.9693 8.16739C33.4608 7.52578 33.882 6.83399 34.1359 6.05508C34.2223 5.7884 34.1278 5.49531 33.9036 5.32104C33.6795 5.14942 33.3662 5.1283 33.1205 5.27352C31.9404 5.95738 30.6334 6.43793 29.2535 6.73102C27.9141 5.50587 26.1508 4.68207 24.1768 4.68207ZM24.1768 6.03395C25.9401 6.03395 27.5334 6.77062 28.6486 7.93504C28.8161 8.10402 29.0618 8.17532 29.2967 8.12515C30.1987 7.95088 31.0547 7.69476 31.8891 7.36471C31.4085 7.99841 30.8144 8.53969 30.1177 8.94895C29.8017 9.09945 29.6532 9.45591 29.7693 9.78068C29.8827 10.1028 30.2284 10.2903 30.5713 10.2163C31.2626 10.1345 31.8783 9.85989 32.5372 9.68826C31.9458 10.314 31.2977 10.8791 30.5929 11.3781C30.4012 11.5154 30.2959 11.7372 30.3121 11.9696C30.3229 12.2442 30.3337 12.5161 30.3337 12.7934C30.3337 17.018 28.6756 21.6044 25.5162 25.1082C22.3567 28.612 17.7174 31.0649 11.6469 31.0649C8.88976 31.0649 6.28657 30.4682 3.93451 29.4173C6.85095 29.1982 9.54056 28.1895 11.7117 26.5234C11.9385 26.3465 12.0276 26.0508 11.9358 25.7815C11.844 25.5122 11.5902 25.3273 11.3012 25.3194C9.02208 25.2798 7.11289 23.9834 6.09484 22.1509C6.13264 22.1509 6.16505 22.1509 6.20285 22.1509C6.88605 22.1509 7.56116 22.0665 8.19035 21.8975C8.4928 21.8103 8.70073 21.5357 8.68993 21.2268C8.67913 20.9179 8.45499 20.6538 8.14715 20.5878C5.68707 20.102 3.8427 18.1428 3.41603 15.7084C4.11274 15.9434 4.82565 16.1282 5.59796 16.152C5.91391 16.1704 6.20015 15.9777 6.29737 15.6846C6.39458 15.3915 6.27576 15.0694 6.00842 14.9057C4.36658 13.831 3.28641 12.0013 3.28641 9.92062C3.28641 9.14962 3.49164 8.442 3.76168 7.76605C7.21821 11.4758 12.0573 13.9393 17.523 14.2086C17.739 14.2192 17.9496 14.1321 18.09 13.971C18.2305 13.8073 18.2845 13.5908 18.2359 13.3848C18.1306 12.9465 18.063 12.4818 18.063 12.0118C18.063 8.70076 20.7905 6.03395 24.1768 6.03395Z" fill="black"/>
</g>
<defs>
<clipPath id="clip0_426_95">
<rect width="34.5652" height="33.7971" fill="white" transform="translate(0.521484 0.985504)"/>
</clipPath>
</defs>
</svg>
