<svg width="1392" height="264" viewBox="0 0 1392 264" fill="none" xmlns="http://www.w3.org/2000/svg">
<g id="edited_outline">
<path id="u" d="M127.595 59.9091V59.6591H127.345V59.9091H127.595ZM165.882 59.9091H166.132V59.6591H165.882V59.9091ZM156.421 212.174L156.21 212.04L156.209 212.041L156.421 212.174ZM130.159 235.341L130.269 235.566L130.269 235.565L130.159 235.341ZM51.3739 235.341L51.2635 235.565L51.2645 235.566L51.3739 235.341ZM25.1122 212.174L24.9008 212.307L24.9008 212.307L25.1122 212.174ZM15.7393 59.9091V59.6591H15.4893V59.9091H15.7393ZM54.0266 59.9091H54.2766V59.6591H54.0266V59.9091ZM58.5362 192.632L58.3181 192.755L58.3192 192.756L58.5362 192.632ZM71.446 205.277L71.325 205.496L71.325 205.496L71.446 205.277ZM110.175 205.277L110.054 205.058L110.053 205.059L110.175 205.277ZM122.997 192.632L122.78 192.508L122.779 192.51L122.997 192.632ZM127.595 60.1591H165.882V59.6591H127.595V60.1591ZM165.632 59.9091V177.512H166.132V59.9091H165.632ZM165.632 177.512C165.632 190.675 162.489 202.181 156.21 212.04L156.632 212.308C162.968 202.36 166.132 190.758 166.132 177.512H165.632ZM156.209 212.041C149.987 221.902 141.27 229.594 130.049 235.117L130.269 235.565C141.567 230.005 150.357 222.253 156.632 212.307L156.209 212.041ZM130.05 235.116C118.831 240.579 105.753 243.314 90.8107 243.314V243.814C105.814 243.814 118.969 241.067 130.269 235.566L130.05 235.116ZM90.8107 243.314C75.8092 243.314 62.7024 240.579 51.4834 235.116L51.2645 235.566C62.564 241.068 75.7484 243.814 90.8107 243.814V243.314ZM51.4843 235.117C40.2634 229.594 31.5458 221.902 25.3236 212.041L24.9008 212.307C31.1758 222.253 39.966 230.005 51.2635 235.565L51.4843 235.117ZM25.3236 212.041C19.1034 202.182 15.9893 190.676 15.9893 177.512H15.4893C15.4893 190.758 18.6239 202.359 24.9008 212.307L25.3236 212.041ZM15.9893 177.512V59.9091H15.4893V177.512H15.9893ZM15.7393 60.1591H54.0266V59.6591H15.7393V60.1591ZM53.7766 59.9091V174.24H54.2766V59.9091H53.7766ZM53.7766 174.24C53.7766 181.175 55.2884 187.349 58.3181 192.755L58.7543 192.51C55.7713 187.188 54.2766 181.1 54.2766 174.24H53.7766ZM58.3192 192.756C61.4078 198.162 65.7448 202.409 71.325 205.496L71.567 205.058C66.0649 202.014 61.7953 197.832 58.7533 192.508L58.3192 192.756ZM71.325 205.496C76.9089 208.585 83.4068 210.125 90.8107 210.125V209.625C83.4775 209.625 77.0655 208.1 71.567 205.058L71.325 205.496ZM90.8107 210.125C98.2732 210.125 104.772 208.585 110.297 205.495L110.053 205.059C104.615 208.1 98.2034 209.625 90.8107 209.625V210.125ZM110.296 205.496C115.877 202.409 120.185 198.161 123.215 192.755L122.779 192.51C119.796 197.833 115.556 202.015 110.054 205.058L110.296 205.496ZM123.214 192.756C126.303 187.35 127.845 181.176 127.845 174.24H127.345C127.345 181.099 125.821 187.186 122.78 192.508L123.214 192.756ZM127.845 174.24V59.9091H127.345V174.24H127.845Z" fill="#4A4944"/>
<path id="n" d="M345.208 59.9091H345.458V59.6591H345.208V59.9091ZM345.208 241V241.25H345.458V241H345.208ZM312.138 241L311.932 241.142L312.007 241.25H312.138V241ZM233.353 127.022L233.559 126.88L233.484 126.772H233.353V127.022ZM232.027 127.022V126.772H231.777V127.022H232.027ZM232.027 241V241.25H232.277V241H232.027ZM193.739 241H193.489V241.25H193.739V241ZM193.739 59.9091V59.6591H193.489V59.9091H193.739ZM227.34 59.9091L227.546 59.7676L227.472 59.6591H227.34V59.9091ZM305.506 173.798L305.3 173.94L305.375 174.048H305.506V173.798ZM307.098 173.798V174.048H307.348V173.798H307.098ZM307.098 59.9091V59.6591H306.848V59.9091H307.098ZM344.958 59.9091V241H345.458V59.9091H344.958ZM345.208 240.75H312.138V241.25H345.208V240.75ZM312.344 240.858L233.559 126.88L233.147 127.165L311.932 241.142L312.344 240.858ZM233.353 126.772H232.027V127.272H233.353V126.772ZM231.777 127.022V241H232.277V127.022H231.777ZM232.027 240.75H193.739V241.25H232.027V240.75ZM193.989 241V59.9091H193.489V241H193.989ZM193.739 60.1591H227.34V59.6591H193.739V60.1591ZM227.134 60.0506L305.3 173.94L305.713 173.657L227.546 59.7676L227.134 60.0506ZM305.506 174.048H307.098V173.548H305.506V174.048ZM307.348 173.798V59.9091H306.848V173.798H307.348ZM307.098 60.1591H345.208V59.6591H307.098V60.1591Z" fill="#4A4944"/>
<path id="s" d="M481.978 111.99L481.729 112.015L481.751 112.24H481.978V111.99ZM435.202 92.0952L435.294 92.3275L435.297 92.3264L435.202 92.0952ZM425.298 99.2575L425.098 99.1074L425.096 99.1099L425.298 99.2575ZM421.938 109.691L422.188 109.7V109.691H421.938ZM423.972 118.18L423.758 118.31L423.761 118.314L423.972 118.18ZM430.25 124.458L430.111 124.666L430.115 124.668L430.25 124.458ZM439.446 128.968L439.359 129.202L439.362 129.203L439.446 128.968ZM450.587 132.151L450.646 131.908L450.642 131.907L450.587 132.151ZM466.857 136.042L466.799 136.285L466.803 136.286L466.857 136.042ZM488.609 143.115L488.507 143.344L488.507 143.344L488.609 143.115ZM505.763 153.991L505.93 153.805L505.93 153.805L505.763 153.991ZM516.993 169.2L516.766 169.304L516.767 169.306L516.993 169.2ZM521.149 189.272L521.399 189.274L521.399 189.27L521.149 189.272ZM512.661 218.098L512.455 217.957L512.454 217.957L512.661 218.098ZM488.609 236.933L488.707 237.163L488.708 237.162L488.609 236.933ZM412.654 236.844L412.558 237.075L412.558 237.075L412.654 236.844ZM387.365 216.949L387.158 217.089L387.159 217.091L387.365 216.949ZM377.903 184.144V183.894H377.648L377.653 184.149L377.903 184.144ZM414.953 184.144L415.202 184.127L415.186 183.894H414.953V184.144ZM420.17 199.353L419.97 199.503L419.973 199.506L420.17 199.353ZM432.637 208.46L432.545 208.693L432.548 208.694L432.637 208.46ZM467.299 208.637L467.208 208.404L467.208 208.405L467.299 208.637ZM478.529 200.767L478.725 200.922L478.725 200.922L478.529 200.767ZM478.883 178.927L478.692 179.089L478.694 179.091L478.883 178.927ZM468.449 171.853L468.35 172.083L468.351 172.083L468.449 171.853ZM451.737 166.548L451.676 166.79L451.678 166.791L451.737 166.548ZM432.018 161.596L432.079 161.353L432.078 161.353L432.018 161.596ZM395.853 144.176L395.687 144.363L395.687 144.363L395.853 144.176ZM382.678 112.256L382.928 112.257L382.928 112.254L382.678 112.256ZM391.432 83.5181L391.23 83.3712L391.229 83.3721L391.432 83.5181ZM486.487 64.3303L486.383 64.5575L486.383 64.5577L486.487 64.3303ZM510.008 83.5181L509.801 83.6592L509.801 83.6592L510.008 83.5181ZM518.673 111.99V112.24H518.927L518.923 111.986L518.673 111.99ZM482.226 111.966C481.513 104.768 478.444 99.1605 473.018 95.1655L472.722 95.5681C478.024 99.4723 481.028 104.947 481.729 112.015L482.226 111.966ZM473.018 95.1655C467.597 91.1743 460.259 89.1925 451.029 89.1925V89.6925C460.192 89.6925 467.414 91.6602 472.722 95.5681L473.018 95.1655ZM451.029 89.1925C444.759 89.1925 439.449 90.0796 435.107 91.8639L435.297 92.3264C439.561 90.5738 444.803 89.6925 451.029 89.6925V89.1925ZM435.109 91.8628C430.772 93.5858 427.43 95.9983 425.098 99.1075L425.498 99.4075C427.764 96.386 431.025 94.0236 435.294 92.3275L435.109 91.8628ZM425.096 99.1099C422.824 102.219 421.688 105.749 421.688 109.691H422.188C422.188 105.852 423.292 102.426 425.5 99.405L425.096 99.1099ZM421.688 109.682C421.569 112.966 422.256 115.846 423.758 118.31L424.185 118.05C422.741 115.681 422.072 112.901 422.188 109.7L421.688 109.682ZM423.761 118.314C425.314 120.764 427.433 122.88 430.111 124.666L430.389 124.25C427.762 122.499 425.695 120.43 424.183 118.046L423.761 118.314ZM430.115 124.668C432.785 126.389 435.867 127.9 439.359 129.202L439.533 128.733C436.069 127.442 433.021 125.946 430.385 124.248L430.115 124.668ZM439.362 129.203C442.851 130.445 446.574 131.509 450.533 132.395L450.642 131.907C446.701 131.025 442.997 129.966 439.53 128.732L439.362 129.203ZM450.529 132.394L466.799 136.285L466.915 135.798L450.646 131.908L450.529 132.394ZM466.803 136.286C474.687 138.051 481.922 140.404 488.507 143.344L488.711 142.887C482.092 139.932 474.825 137.569 466.912 135.798L466.803 136.286ZM488.507 143.344C495.089 146.282 500.785 149.894 505.597 154.178L505.93 153.805C501.075 149.483 495.334 145.844 488.711 142.887L488.507 143.344ZM505.597 154.178C510.405 158.459 514.128 163.5 516.766 169.304L517.221 169.097C514.554 163.229 510.789 158.131 505.93 153.805L505.597 154.178ZM516.767 169.306C519.461 175.104 520.84 181.758 520.899 189.274L521.399 189.27C521.34 181.695 519.949 174.968 517.22 169.095L516.767 169.306ZM520.899 189.271C520.84 200.31 518.023 209.868 512.455 217.957L512.866 218.24C518.498 210.059 521.34 200.4 521.399 189.274L520.899 189.271ZM512.454 217.957C506.944 225.988 498.968 232.238 488.511 236.703L488.708 237.162C499.237 232.667 507.294 226.361 512.867 218.24L512.454 217.957ZM488.512 236.702C478.117 241.107 465.566 243.314 450.853 243.314V243.814C465.614 243.814 478.234 241.6 488.707 237.163L488.512 236.702ZM450.853 243.314C436.258 243.314 423.559 241.078 412.749 236.613L412.558 237.075C423.442 241.57 436.208 243.814 450.853 243.814V243.314ZM412.75 236.613C402.002 232.15 393.612 225.547 387.57 216.807L387.159 217.091C393.261 225.918 401.73 232.578 412.558 237.075L412.75 236.613ZM387.571 216.808C381.591 208.014 378.447 197.128 378.153 184.138L377.653 184.149C377.949 197.215 381.113 208.199 387.158 217.089L387.571 216.808ZM377.903 184.394H414.953V183.894H377.903V184.394ZM414.703 184.161C415.119 190.271 416.87 195.39 419.97 199.503L420.369 199.202C417.339 195.18 415.612 190.16 415.202 184.127L414.703 184.161ZM419.973 199.506C423.127 203.553 427.32 206.615 432.545 208.693L432.73 208.228C427.579 206.179 423.461 203.169 420.367 199.199L419.973 199.506ZM432.548 208.694C437.828 210.711 443.783 211.717 450.411 211.717V211.217C443.833 211.217 437.94 210.218 432.727 208.227L432.548 208.694ZM450.411 211.717C456.918 211.717 462.581 210.77 467.391 208.87L467.208 208.405C462.468 210.277 456.871 211.217 450.411 211.217V211.717ZM467.39 208.87C472.257 206.971 476.04 204.324 478.725 200.922L478.333 200.612C475.713 203.931 472.01 206.531 467.208 208.404L467.39 208.87ZM478.725 200.922C481.414 197.517 482.758 193.601 482.758 189.184H482.258C482.258 193.491 480.95 197.297 478.333 200.612L478.725 200.922ZM482.758 189.184C482.758 185.063 481.532 181.584 479.071 178.763L478.694 179.091C481.067 181.811 482.258 185.17 482.258 189.184H482.758ZM479.073 178.765C476.682 175.956 473.168 173.578 468.546 171.623L468.351 172.083C472.926 174.019 476.367 176.357 478.692 179.089L479.073 178.765ZM468.547 171.623C463.992 169.671 458.407 167.898 451.795 166.305L451.678 166.791C458.272 168.38 463.828 170.145 468.35 172.083L468.547 171.623ZM451.798 166.305L432.079 161.353L431.958 161.838L451.676 166.79L451.798 166.305ZM432.078 161.353C416.837 157.646 404.823 151.854 396.02 143.99L395.687 144.363C404.568 152.297 416.664 158.118 431.959 161.839L432.078 161.353ZM396.02 143.99C387.238 136.145 382.87 125.577 382.928 112.257L382.428 112.255C382.369 125.697 386.784 136.41 395.687 144.363L396.02 143.99ZM382.928 112.254C382.87 101.338 385.774 91.8113 391.635 83.6641L391.229 83.3721C385.301 91.6127 382.369 101.244 382.428 112.257L382.928 112.254ZM391.634 83.6651C397.559 75.5109 405.687 69.1412 416.027 64.5588L415.824 64.1017C405.414 68.7153 397.213 75.1375 391.23 83.3712L391.634 83.6651ZM416.027 64.5588C426.365 59.9771 438.119 57.6832 451.295 57.6832V57.1832C438.061 57.1832 426.236 59.4874 415.824 64.1017L416.027 64.5588ZM451.295 57.6832C464.707 57.6832 476.401 59.9774 486.383 64.5575L486.591 64.103C476.531 59.4871 464.763 57.1832 451.295 57.1832V57.6832ZM486.383 64.5577C496.427 69.1391 504.23 75.5071 509.801 83.6592L510.214 83.377C504.585 75.1413 496.708 68.7175 486.591 64.1028L486.383 64.5577ZM509.801 83.6592C515.372 91.8091 518.247 101.251 518.423 111.995L518.923 111.986C518.746 101.154 515.844 91.6149 510.214 83.377L509.801 83.6592ZM518.673 111.74H481.978V112.24H518.673V111.74Z" fill="#4A4944"/>
<path id="p" d="M554.739 241H554.489V241.25H554.739V241ZM554.739 59.9091V59.6591H554.489V59.9091H554.739ZM661.289 67.7788L661.17 67.9985L661.171 67.9991L661.289 67.7788ZM683.395 89.4425L683.176 89.5626L683.177 89.5642L683.395 89.4425ZM660.759 174.594L660.643 174.372L660.643 174.373L660.759 174.594ZM579.675 182.287H579.425V182.537H579.675V182.287ZM579.675 151.604V151.354H579.425V151.604H579.675ZM637.238 147.802L637.356 148.023L637.356 148.022L637.238 147.802ZM648.026 137.103L647.805 136.986L647.804 136.987L648.026 137.103ZM648.026 105.536L647.804 105.651L647.806 105.654L648.026 105.536ZM637.238 95.0131L637.122 95.2346L637.124 95.2356L637.238 95.0131ZM593.027 91.2109V90.9609H592.777V91.2109H593.027ZM593.027 241V241.25H593.277V241H593.027ZM554.989 241V59.9091H554.489V241H554.989ZM554.739 60.1591H626.185V59.6591H554.739V60.1591ZM626.185 60.1591C639.889 60.1591 651.547 62.7763 661.17 67.9985L661.409 67.559C651.696 62.2884 639.952 59.6591 626.185 59.6591V60.1591ZM661.171 67.9991C670.798 73.1646 678.131 80.3518 683.176 89.5626L683.615 89.3224C678.521 80.0232 671.116 72.7679 661.408 67.5585L661.171 67.9991ZM683.177 89.5642C688.282 98.718 690.838 109.286 690.838 121.275H691.338C691.338 109.213 688.766 98.559 683.614 89.3207L683.177 89.5642ZM690.838 121.275C690.838 133.263 688.253 143.831 683.089 152.984L683.525 153.23C688.736 143.992 691.338 133.337 691.338 121.275H690.838ZM683.089 152.984C677.927 162.136 670.447 169.265 660.643 174.372L660.874 174.816C670.759 169.666 678.312 162.47 683.525 153.23L683.089 152.984ZM660.643 174.373C650.901 179.478 639.094 182.037 625.213 182.037V182.537C639.155 182.537 651.046 179.967 660.875 174.816L660.643 174.373ZM625.213 182.037H579.675V182.537H625.213V182.037ZM579.925 182.287V151.604H579.425V182.287H579.925ZM579.675 151.854H619.023V151.354H579.675V151.854ZM619.023 151.854C626.418 151.854 632.534 150.582 637.356 148.023L637.121 147.581C632.393 150.091 626.365 151.354 619.023 151.354V151.854ZM637.356 148.022C642.231 145.406 645.865 141.805 648.248 137.218L647.804 136.987C645.471 141.479 641.913 145.01 637.12 147.582L637.356 148.022ZM648.247 137.219C650.686 132.58 651.901 127.263 651.901 121.275H651.401C651.401 127.194 650.2 132.429 647.805 136.986L648.247 137.219ZM651.901 121.275C651.901 115.228 650.686 109.939 648.246 105.417L647.806 105.654C650.2 110.092 651.401 115.296 651.401 121.275H651.901ZM648.248 105.42C645.864 100.832 642.229 97.2886 637.352 94.7906L637.124 95.2356C641.915 97.6894 645.472 101.161 647.804 105.651L648.248 105.42ZM637.354 94.7917C632.474 92.2326 626.3 90.9609 618.846 90.9609V91.4609C626.247 91.4609 632.335 92.7241 637.122 95.2345L637.354 94.7917ZM618.846 90.9609H593.027V91.4609H618.846V90.9609ZM592.777 91.2109V241H593.277V91.2109H592.777ZM593.027 240.75H554.739V241.25H593.027V240.75Z" fill="#4A4944"/>
<path id="l" d="M725.739 241H725.489V241.25H725.739V241ZM725.739 59.9091V59.6591H725.489V59.9091H725.739ZM764.027 59.9091H764.277V59.6591H764.027V59.9091ZM764.027 209.433H763.777V209.683H764.027V209.433ZM841.662 209.433H841.912V209.183H841.662V209.433ZM841.662 241V241.25H841.912V241H841.662ZM725.989 241V59.9091H725.489V241H725.989ZM725.739 60.1591H764.027V59.6591H725.739V60.1591ZM763.777 59.9091V209.433H764.277V59.9091H763.777ZM764.027 209.683H841.662V209.183H764.027V209.683ZM841.412 209.433V241H841.912V209.433H841.412ZM841.662 240.75H725.739V241.25H841.662V240.75Z" fill="#4A4944"/>
<path id="a" d="M905.953 241V241.25H906.134L906.191 241.077L905.953 241ZM864.924 241L864.688 240.918L864.574 241.25H864.924V241ZM927.44 59.9091V59.6591H927.261L927.203 59.8275L927.44 59.9091ZM976.78 59.9091L977.016 59.8276L976.958 59.6591H976.78V59.9091ZM1039.21 241V241.25H1039.56L1039.44 240.919L1039.21 241ZM998.178 241L997.94 241.077L997.997 241.25H998.178V241ZM952.817 101.291L953.055 101.214L952.999 101.041H952.817V101.291ZM951.402 101.291V101.041H951.221L951.165 101.214L951.402 101.291ZM903.388 169.819V169.569H903.138V169.819H903.388ZM1000.3 169.819H1000.55V169.569H1000.3V169.819ZM1000.3 199.706V199.956H1000.55V199.706H1000.3ZM903.388 199.706H903.138V199.956H903.388V199.706ZM905.953 240.75H864.924V241.25H905.953V240.75ZM865.161 241.082L927.676 59.9907L927.203 59.8275L864.688 240.918L865.161 241.082ZM927.44 60.1591H976.78V59.6591H927.44V60.1591ZM976.543 59.9906L1038.97 241.081L1039.44 240.919L977.016 59.8276L976.543 59.9906ZM1039.21 240.75H998.178V241.25H1039.21V240.75ZM998.416 240.923L953.055 101.214L952.579 101.368L997.94 241.077L998.416 240.923ZM952.817 101.041H951.402V101.541H952.817V101.041ZM951.165 101.214L905.715 240.923L906.191 241.077L951.64 101.369L951.165 101.214ZM903.388 170.069H1000.3V169.569H903.388V170.069ZM1000.05 169.819V199.706H1000.55V169.819H1000.05ZM1000.3 199.456H903.388V199.956H1000.3V199.456ZM903.638 199.706V169.819H903.138V199.706H903.638Z" fill="#4A4944"/>
<path id="s_2" d="M1158.98 111.99L1158.73 112.015L1158.75 112.24H1158.98V111.99ZM1112.2 92.0952L1112.29 92.3275L1112.3 92.3264L1112.2 92.0952ZM1102.3 99.2575L1102.1 99.1074L1102.1 99.1099L1102.3 99.2575ZM1098.94 109.691L1099.19 109.7V109.691H1098.94ZM1100.97 118.18L1100.76 118.31L1100.76 118.314L1100.97 118.18ZM1107.25 124.458L1107.11 124.666L1107.11 124.668L1107.25 124.458ZM1116.45 128.968L1116.36 129.202L1116.36 129.203L1116.45 128.968ZM1127.59 132.151L1127.65 131.908L1127.64 131.907L1127.59 132.151ZM1143.86 136.042L1143.8 136.285L1143.8 136.286L1143.86 136.042ZM1165.61 143.115L1165.51 143.344L1165.51 143.344L1165.61 143.115ZM1182.76 153.991L1182.93 153.805L1182.93 153.805L1182.76 153.991ZM1193.99 169.2L1193.77 169.304L1193.77 169.306L1193.99 169.2ZM1198.15 189.272L1198.4 189.274L1198.4 189.27L1198.15 189.272ZM1189.66 218.098L1189.45 217.957L1189.45 217.957L1189.66 218.098ZM1165.61 236.933L1165.71 237.163L1165.71 237.162L1165.61 236.933ZM1089.65 236.844L1089.56 237.075L1089.56 237.075L1089.65 236.844ZM1064.36 216.949L1064.16 217.089L1064.16 217.091L1064.36 216.949ZM1054.9 184.144V183.894H1054.65L1054.65 184.149L1054.9 184.144ZM1091.95 184.144L1092.2 184.127L1092.19 183.894H1091.95V184.144ZM1097.17 199.353L1096.97 199.503L1096.97 199.506L1097.17 199.353ZM1109.64 208.46L1109.55 208.693L1109.55 208.694L1109.64 208.46ZM1144.3 208.637L1144.21 208.404L1144.21 208.405L1144.3 208.637ZM1155.53 200.767L1155.73 200.922L1155.73 200.922L1155.53 200.767ZM1155.88 178.927L1155.69 179.089L1155.69 179.091L1155.88 178.927ZM1145.45 171.853L1145.35 172.083L1145.35 172.083L1145.45 171.853ZM1128.74 166.548L1128.68 166.79L1128.68 166.791L1128.74 166.548ZM1109.02 161.596L1109.08 161.353L1109.08 161.353L1109.02 161.596ZM1072.85 144.176L1072.69 144.363L1072.69 144.363L1072.85 144.176ZM1059.68 112.256L1059.93 112.257L1059.93 112.254L1059.68 112.256ZM1068.43 83.5181L1068.23 83.3712L1068.23 83.3721L1068.43 83.5181ZM1163.49 64.3303L1163.38 64.5575L1163.38 64.5577L1163.49 64.3303ZM1187.01 83.5181L1186.8 83.6592L1186.8 83.6592L1187.01 83.5181ZM1195.67 111.99V112.24H1195.93L1195.92 111.986L1195.67 111.99ZM1159.23 111.966C1158.51 104.768 1155.44 99.1605 1150.02 95.1655L1149.72 95.5681C1155.02 99.4723 1158.03 104.947 1158.73 112.015L1159.23 111.966ZM1150.02 95.1655C1144.6 91.1743 1137.26 89.1925 1128.03 89.1925V89.6925C1137.19 89.6925 1144.41 91.6602 1149.72 95.5681L1150.02 95.1655ZM1128.03 89.1925C1121.76 89.1925 1116.45 90.0796 1112.11 91.8639L1112.3 92.3264C1116.56 90.5738 1121.8 89.6925 1128.03 89.6925V89.1925ZM1112.11 91.8628C1107.77 93.5858 1104.43 95.9983 1102.1 99.1075L1102.5 99.4075C1104.76 96.386 1108.02 94.0236 1112.29 92.3275L1112.11 91.8628ZM1102.1 99.1099C1099.82 102.219 1098.69 105.749 1098.69 109.691H1099.19C1099.19 105.852 1100.29 102.426 1102.5 99.405L1102.1 99.1099ZM1098.69 109.682C1098.57 112.966 1099.26 115.846 1100.76 118.31L1101.19 118.05C1099.74 115.681 1099.07 112.901 1099.19 109.7L1098.69 109.682ZM1100.76 118.314C1102.31 120.764 1104.43 122.88 1107.11 124.666L1107.39 124.25C1104.76 122.499 1102.7 120.43 1101.18 118.046L1100.76 118.314ZM1107.11 124.668C1109.78 126.389 1112.87 127.9 1116.36 129.202L1116.53 128.733C1113.07 127.442 1110.02 125.946 1107.39 124.248L1107.11 124.668ZM1116.36 129.203C1119.85 130.445 1123.57 131.509 1127.53 132.395L1127.64 131.907C1123.7 131.025 1120 129.966 1116.53 128.732L1116.36 129.203ZM1127.53 132.394L1143.8 136.285L1143.92 135.798L1127.65 131.908L1127.53 132.394ZM1143.8 136.286C1151.69 138.051 1158.92 140.404 1165.51 143.344L1165.71 142.887C1159.09 139.932 1151.83 137.569 1143.91 135.798L1143.8 136.286ZM1165.51 143.344C1172.09 146.282 1177.78 149.894 1182.6 154.178L1182.93 153.805C1178.07 149.483 1172.33 145.844 1165.71 142.887L1165.51 143.344ZM1182.6 154.178C1187.41 158.459 1191.13 163.5 1193.77 169.304L1194.22 169.097C1191.55 163.229 1187.79 158.131 1182.93 153.805L1182.6 154.178ZM1193.77 169.306C1196.46 175.104 1197.84 181.758 1197.9 189.274L1198.4 189.27C1198.34 181.695 1196.95 174.968 1194.22 169.095L1193.77 169.306ZM1197.9 189.271C1197.84 200.31 1195.02 209.868 1189.45 217.957L1189.87 218.24C1195.5 210.059 1198.34 200.4 1198.4 189.274L1197.9 189.271ZM1189.45 217.957C1183.94 225.988 1175.97 232.238 1165.51 236.703L1165.71 237.162C1176.24 232.667 1184.29 226.361 1189.87 218.24L1189.45 217.957ZM1165.51 236.702C1155.12 241.107 1142.57 243.314 1127.85 243.314V243.814C1142.61 243.814 1155.23 241.6 1165.71 237.163L1165.51 236.702ZM1127.85 243.314C1113.26 243.314 1100.56 241.078 1089.75 236.613L1089.56 237.075C1100.44 241.57 1113.21 243.814 1127.85 243.814V243.314ZM1089.75 236.613C1079 232.15 1070.61 225.547 1064.57 216.807L1064.16 217.091C1070.26 225.918 1078.73 232.578 1089.56 237.075L1089.75 236.613ZM1064.57 216.808C1058.59 208.014 1055.45 197.128 1055.15 184.138L1054.65 184.149C1054.95 197.215 1058.11 208.199 1064.16 217.089L1064.57 216.808ZM1054.9 184.394H1091.95V183.894H1054.9V184.394ZM1091.7 184.161C1092.12 190.271 1093.87 195.39 1096.97 199.503L1097.37 199.202C1094.34 195.18 1092.61 190.16 1092.2 184.127L1091.7 184.161ZM1096.97 199.506C1100.13 203.553 1104.32 206.615 1109.55 208.693L1109.73 208.228C1104.58 206.179 1100.46 203.169 1097.37 199.199L1096.97 199.506ZM1109.55 208.694C1114.83 210.711 1120.78 211.717 1127.41 211.717V211.217C1120.83 211.217 1114.94 210.218 1109.73 208.227L1109.55 208.694ZM1127.41 211.717C1133.92 211.717 1139.58 210.77 1144.39 208.87L1144.21 208.405C1139.47 210.277 1133.87 211.217 1127.41 211.217V211.717ZM1144.39 208.87C1149.26 206.971 1153.04 204.324 1155.73 200.922L1155.33 200.612C1152.71 203.931 1149.01 206.531 1144.21 208.404L1144.39 208.87ZM1155.73 200.922C1158.41 197.517 1159.76 193.601 1159.76 189.184H1159.26C1159.26 193.491 1157.95 197.297 1155.33 200.612L1155.73 200.922ZM1159.76 189.184C1159.76 185.063 1158.53 181.584 1156.07 178.763L1155.69 179.091C1158.07 181.811 1159.26 185.17 1159.26 189.184H1159.76ZM1156.07 178.765C1153.68 175.956 1150.17 173.578 1145.55 171.623L1145.35 172.083C1149.93 174.019 1153.37 176.357 1155.69 179.089L1156.07 178.765ZM1145.55 171.623C1140.99 169.671 1135.41 167.898 1128.8 166.305L1128.68 166.791C1135.27 168.38 1140.83 170.145 1145.35 172.083L1145.55 171.623ZM1128.8 166.305L1109.08 161.353L1108.96 161.838L1128.68 166.79L1128.8 166.305ZM1109.08 161.353C1093.84 157.646 1081.82 151.854 1073.02 143.99L1072.69 144.363C1081.57 152.297 1093.66 158.118 1108.96 161.839L1109.08 161.353ZM1073.02 143.99C1064.24 136.145 1059.87 125.577 1059.93 112.257L1059.43 112.255C1059.37 125.697 1063.78 136.41 1072.69 144.363L1073.02 143.99ZM1059.93 112.254C1059.87 101.338 1062.77 91.8113 1068.64 83.6641L1068.23 83.3721C1062.3 91.6127 1059.37 101.244 1059.43 112.257L1059.93 112.254ZM1068.63 83.6651C1074.56 75.5109 1082.69 69.1412 1093.03 64.5588L1092.82 64.1017C1082.41 68.7153 1074.21 75.1375 1068.23 83.3712L1068.63 83.6651ZM1093.03 64.5588C1103.37 59.9771 1115.12 57.6832 1128.29 57.6832V57.1832C1115.06 57.1832 1103.24 59.4874 1092.82 64.1017L1093.03 64.5588ZM1128.29 57.6832C1141.71 57.6832 1153.4 59.9774 1163.38 64.5575L1163.59 64.103C1153.53 59.4871 1141.76 57.1832 1128.29 57.1832V57.6832ZM1163.38 64.5577C1173.43 69.1391 1181.23 75.5071 1186.8 83.6592L1187.21 83.377C1181.59 75.1413 1173.71 68.7175 1163.59 64.1028L1163.38 64.5577ZM1186.8 83.6592C1192.37 91.8091 1195.25 101.251 1195.42 111.995L1195.92 111.986C1195.75 101.154 1192.84 91.6149 1187.21 83.377L1186.8 83.6592ZM1195.67 111.74H1158.98V112.24H1195.67V111.74Z" fill="#4A4944"/>
<path id="h" d="M1225.74 241H1225.49V241.25H1225.74V241ZM1225.74 59.9091V59.6591H1225.49V59.9091H1225.74ZM1264.03 59.9091H1264.28V59.6591H1264.03V59.9091ZM1264.03 134.627H1263.78V134.877H1264.03V134.627ZM1341.75 134.627V134.877H1342V134.627H1341.75ZM1341.75 59.9091V59.6591H1341.5V59.9091H1341.75ZM1379.95 59.9091H1380.2V59.6591H1379.95V59.9091ZM1379.95 241V241.25H1380.2V241H1379.95ZM1341.75 241H1341.5V241.25H1341.75V241ZM1341.75 166.194H1342V165.944H1341.75V166.194ZM1264.03 166.194V165.944H1263.78V166.194H1264.03ZM1264.03 241V241.25H1264.28V241H1264.03ZM1225.99 241V59.9091H1225.49V241H1225.99ZM1225.74 60.1591H1264.03V59.6591H1225.74V60.1591ZM1263.78 59.9091V134.627H1264.28V59.9091H1263.78ZM1264.03 134.877H1341.75V134.377H1264.03V134.877ZM1342 134.627V59.9091H1341.5V134.627H1342ZM1341.75 60.1591H1379.95V59.6591H1341.75V60.1591ZM1379.7 59.9091V241H1380.2V59.9091H1379.7ZM1379.95 240.75H1341.75V241.25H1379.95V240.75ZM1342 241V166.194H1341.5V241H1342ZM1341.75 165.944H1264.03V166.444H1341.75V165.944ZM1263.78 166.194V241H1264.28V166.194H1263.78ZM1264.03 240.75H1225.74V241.25H1264.03V240.75Z" fill="#4A4944"/>
</g>
</svg>
