<svg width="653" height="472" viewBox="0 0 653 472" fill="none" xmlns="http://www.w3.org/2000/svg">
<path d="M458.032 414.419C456.033 418.42 549.645 417.191 550.752 417.19C550.752 417.19 577.064 416.609 577.617 415.65C577.893 415.171 578.032 414.645 578.031 414.119C578.031 413.594 577.893 413.068 577.616 412.589L565.5 390.568C564.947 389.613 563.956 389.041 562.849 389.041C562.803 389.041 562.736 389.082 562.648 389.16C546.485 403.604 526.565 413.153 504.891 413.475C481.844 413.818 458.159 414.165 458.032 414.419H458.032V414.419Z" fill="#3F3D56"/>
<path d="M608.395 411.305L599.35 411.308L595.035 376.422L608.384 376.418L608.395 411.305Z" fill="#FFB8B8"/>
<path d="M577.406 411.111C577.124 411.585 576.976 413.116 576.977 413.668C576.977 415.363 578.352 416.737 580.047 416.737L608.058 416.727C609.215 416.726 610.152 415.789 610.151 414.632L610.151 413.466C610.151 413.466 611.535 409.96 608.681 405.641C608.681 405.641 605.137 409.025 599.837 403.729L598.273 400.899L586.967 409.174L580.698 409.948C579.327 410.117 578.111 409.923 577.406 411.111H577.406V411.111Z" fill="#2F2E41"/>
<path d="M573.715 381.467L565.147 384.366L549.887 352.7L562.532 348.421L573.715 381.467Z" fill="#FFB8B8"/>
<path d="M544.296 391.208C544.181 391.748 544.531 393.245 544.708 393.768C545.252 395.374 546.994 396.235 548.6 395.691L575.132 386.711C576.228 386.34 576.815 385.152 576.444 384.056L576.071 382.951C576.071 382.951 576.259 379.187 572.172 376.01C572.172 376.01 569.898 380.351 563.181 377.031L560.794 374.851L552.733 386.311L547.043 389.052C545.798 389.651 544.583 389.856 544.296 391.208L544.296 391.208V391.208Z" fill="#2F2E41"/>
<path d="M559.742 179.09L542.199 237.191L521.488 289.452L554.277 364.086L566.434 358.677L551.887 290.117L582.395 243.594L596.631 388.826L608.79 388.147L625.279 212.843L627.63 174.676L559.742 179.09Z" fill="#2F2E41"/>
<path d="M612.727 50.3851L587.059 55.1227L585.036 66.6072L569.502 74.0433L561.425 158.486C561.425 158.486 547.92 176.054 558.73 181.455L627.631 174.676C627.631 174.676 631.004 162.185 627.626 161C624.248 159.815 624.238 129.981 624.238 129.981L639.754 68.6148L616.783 60.5165L612.727 50.3851Z" fill="#E6E6E6"/>
<path d="M597.587 50.1635C609.035 50.1635 618.315 40.8834 618.315 29.4359C618.315 17.9883 609.035 8.70825 597.587 8.70825C586.139 8.70825 576.859 17.9883 576.859 29.4359C576.859 40.8834 586.139 50.1635 597.587 50.1635Z" fill="#FFB8B8"/>
<path d="M611.312 32.5123C609.658 33.4178 611.227 37.741 610.193 38.1147C608.998 38.5467 604.641 33.5876 604.588 28.033C604.571 26.3518 604.958 25.5446 604.586 23.5513C604.099 20.944 602.606 17.8688 601.223 17.9504C600.403 17.9988 599.603 19.1577 599.543 20.1918C599.459 21.6412 600.867 22.2117 600.664 22.9925C600.278 24.4796 594.366 25.5063 592.261 22.9954C590.611 21.0269 591.877 17.5707 591.139 17.3937C590.595 17.2633 590.011 19.1661 587.779 21.3163C586.938 22.1264 585.687 23.3312 584.979 22.9979C583.955 22.5162 584.699 19.1217 584.417 19.0766C584.184 19.0394 584.038 21.4253 582.738 23.5589C581.068 26.2999 577.624 28.4126 576.017 27.4826C575.032 26.9129 574.954 25.3266 574.895 24.1218C574.771 21.5836 571.082 15.7454 572.036 13.0301C573.979 7.50384 577.307 11.3994 578.812 9.5551C580.849 7.05841 582.677 8.40076 586.093 5.63114C589.43 2.9255 589.459 0.206102 591.693 0.027142C593.705 -0.134018 594.421 2.01242 596.735 1.70601C598.696 1.44644 599.123 -0.218348 600.656 0.024032C602.06 0.245932 602.153 1.71252 604.018 2.26369C605.209 2.61557 605.471 2.10626 606.819 2.26272C609.625 2.58828 611.509 5.14355 611.862 5.62221C613.223 7.46747 612.695 8.24562 614.105 10.1031C615.32 11.7049 618.014 11.0247 619.027 11.8247C622.336 14.4388 623.758 19.2597 623.787 24.7543C623.807 28.5974 623.306 30.5391 622.187 35.39C621.338 39.0734 617.406 43.8333 615.238 45.9559C614.656 46.5256 613.024 48.1229 611.877 47.6376C610.79 47.1778 610.757 45.11 610.756 44.837C610.751 43.898 611.001 42.7361 612.995 39.7944C615.089 36.7043 615.921 36.3517 615.794 35.3117C615.57 33.4736 612.63 31.7905 611.311 32.5123H611.312V32.5123Z" fill="#2F2E41"/>
<path d="M539.012 225.76C538.367 231.162 540.631 235.875 544.069 236.286C547.507 236.696 550.817 232.649 551.462 227.247C551.745 224.882 551.47 222.649 550.783 220.851L553.229 197.925L542.446 197.006L541.179 219.705C540.088 221.29 539.295 223.395 539.012 225.76H539.012H539.012Z" fill="#FFB8B8"/>
<path d="M570.008 73.4977C570.008 73.4977 564.421 73.5772 560.722 80.8015C558.757 84.6405 548.24 156.429 548.24 156.429L538.553 215.238L555.055 215.321L567.914 159.628L578.731 127.327L570.008 73.4977L570.008 73.4977Z" fill="#E6E6E6"/>
<path d="M616.446 217.13C614.866 222.337 616.27 227.373 619.584 228.378C622.897 229.384 626.864 225.978 628.444 220.772C629.136 218.493 629.255 216.246 628.893 214.357L635.313 192.211L624.856 189.42L619.638 211.547C618.287 212.917 617.138 214.851 616.446 217.13V217.13V217.13Z" fill="#FFB8B8"/>
<path d="M627.931 69.6321C627.931 69.6321 636.035 63.5497 642.794 73.0046C649.552 82.4596 652.281 160.143 652.281 160.143L633.383 208.112L619.196 203.388L632.686 144.613L609.027 100.037L627.931 69.6321H627.931V69.6321Z" fill="#E6E6E6"/>
<path d="M483.186 415.274L91.8106 418.689C85.8572 418.734 80.129 416.414 75.8826 412.237C71.6361 408.06 69.2184 402.367 69.1596 396.408L67.3348 187.306C67.2895 181.346 69.6076 175.613 73.7805 171.362C77.9533 167.112 83.6402 164.691 89.5935 164.633L480.969 161.217C486.922 161.172 492.651 163.493 496.897 167.67C501.143 171.847 503.561 177.539 503.62 183.498L505.445 392.601C505.49 398.56 503.172 404.294 498.999 408.544C494.826 412.795 489.139 415.215 483.186 415.274V415.274Z" fill="white"/>
<path d="M376.7 398.492L123.961 400.698C123.644 400.702 123.328 400.697 123.016 400.682L241.962 332.253C244.227 330.924 249.329 330.419 253.359 331.124C254.463 331.285 255.535 331.623 256.531 332.126L337.148 376.647L341.01 378.777L376.7 398.492Z" fill="#E6E6E6"/>
<path d="M456.434 397.797L237.835 399.704L280.021 379.31L283.056 377.84L338.028 351.262C341.632 349.52 350.336 349.338 354.604 350.795C354.891 350.894 355.157 351 355.402 351.111L456.434 397.797Z" fill="#E6E6E6"/>
<path d="M483.186 415.274L91.8106 418.689C85.8572 418.734 80.129 416.414 75.8826 412.237C71.6361 408.06 69.2184 402.367 69.1596 396.408L67.3348 187.306C67.2895 181.346 69.6076 175.613 73.7805 171.362C77.9533 167.112 83.6402 164.691 89.5935 164.633L480.969 161.217C486.922 161.172 492.651 163.493 496.897 167.67C501.143 171.847 503.561 177.539 503.62 183.498L505.445 392.601C505.49 398.56 503.172 404.294 498.999 408.544C494.826 412.795 489.139 415.215 483.186 415.274V415.274ZM89.6054 165.995C84.0129 166.05 78.6707 168.324 74.7508 172.316C70.8308 176.309 68.6532 181.696 68.6957 187.294L70.5205 396.396C70.5757 401.994 72.847 407.342 76.836 411.266C80.8251 415.189 86.2061 417.369 91.7987 417.327L483.174 413.911C488.767 413.856 494.109 411.583 498.029 407.59C501.949 403.597 504.126 398.211 504.084 392.613L502.259 183.51C502.204 177.912 499.933 172.565 495.943 168.641C491.954 164.717 486.573 162.537 480.981 162.58L89.6054 165.995Z" fill="#3F3D56"/>
<path d="M483.043 398.927L91.6672 402.342C90.0435 402.354 88.4813 401.722 87.3232 400.582C86.1651 399.443 85.5057 397.891 85.4896 396.266L83.6648 187.163C83.6525 185.538 84.2847 183.974 85.4228 182.815C86.5608 181.656 88.1118 180.996 89.7354 180.98L481.111 177.564C482.734 177.552 484.297 178.185 485.455 179.324C486.613 180.463 487.272 182.015 487.288 183.641L489.113 392.743C489.125 394.368 488.493 395.932 487.355 397.091C486.217 398.251 484.666 398.911 483.043 398.927V398.927ZM89.7473 182.342C88.4844 182.354 87.2781 182.868 86.393 183.769C85.5078 184.671 85.0161 185.887 85.0257 187.151L86.8505 396.254C86.863 397.518 87.3758 398.725 88.2766 399.611C89.1773 400.497 90.3924 400.99 91.6553 400.98L483.031 397.564C484.294 397.552 485.5 397.039 486.385 396.137C487.27 395.235 487.762 394.019 487.752 392.755L485.927 183.653C485.915 182.388 485.402 181.181 484.501 180.295C483.601 179.409 482.386 178.917 481.123 178.926L89.7473 182.342Z" fill="#CCCCCC"/>
<path d="M394.243 216.6C417.506 216.397 436.2 197.355 435.996 174.069C435.793 150.783 416.77 132.07 393.507 132.273C370.243 132.476 351.55 151.518 351.753 174.804C351.956 198.09 370.979 216.803 394.243 216.6Z" fill="#FF6584"/>
<path d="M412.825 327.791C442.289 327.534 465.913 297.399 465.591 260.482C465.268 223.566 441.122 193.848 411.658 194.105C382.194 194.362 358.57 224.497 358.892 261.414C359.214 298.33 383.361 328.048 412.825 327.791Z" fill="#F2F2F2"/>
<path d="M412.271 247.506L412.418 247.504L416.377 398.883L410.808 398.932L412.271 247.506Z" fill="#CCCCCC"/>
<path d="M422.244 347.659C422.41 347.968 422.446 348.329 422.346 348.665C422.245 349 422.015 349.282 421.707 349.447L414.091 353.547L412.841 351.221L420.458 347.122C420.766 346.956 421.127 346.919 421.462 347.02C421.797 347.121 422.078 347.351 422.244 347.659Z" fill="#CCCCCC"/>
<path d="M259.446 329.129C288.91 328.872 312.534 298.737 312.212 261.821C311.889 224.905 287.743 195.187 258.279 195.444C228.815 195.701 205.191 225.836 205.513 262.752C205.835 299.668 229.982 329.387 259.446 329.129Z" fill="#F2F2F2"/>
<path d="M268.888 351.501L268.888 351.501C268.722 351.192 268.441 350.963 268.106 350.862C267.771 350.761 267.41 350.797 267.101 350.963L261.784 353.825L259.038 248.843L258.892 248.844L257.429 400.271L262.998 400.222L261.862 356.782L268.351 353.289C268.659 353.123 268.889 352.842 268.989 352.506C269.09 352.171 269.054 351.809 268.888 351.501V351.501Z" fill="#CCCCCC"/>
<path d="M334.021 107.576C371.355 107.25 402.315 177.401 402.723 224.178C403.131 270.955 373.197 309.139 335.863 309.465C298.529 309.791 267.933 272.135 267.525 225.358C267.116 178.581 296.687 107.902 334.021 107.576Z" fill="#CE894C"/>
<path d="M347.821 337.131C347.717 336.937 347.576 336.766 347.406 336.627C347.236 336.488 347.04 336.384 346.83 336.321C346.62 336.258 346.4 336.236 346.181 336.259C345.963 336.281 345.751 336.346 345.558 336.45L338.82 340.076L335.341 207.052L335.155 207.054L333.301 398.927L340.358 398.866L338.918 343.822L347.141 339.397C347.334 339.293 347.505 339.152 347.644 338.981C347.783 338.811 347.887 338.615 347.95 338.405C348.013 338.194 348.034 337.974 348.012 337.755C347.99 337.536 347.925 337.324 347.821 337.131V337.131Z" fill="#3F3D56"/>
<path d="M81.7154 303C90.953 287 114.047 287 123.285 303L170.483 384.75C179.721 400.75 168.174 420.75 149.698 420.75H55.3016C36.8264 420.75 25.2794 400.75 34.517 384.75L81.7154 303Z" fill="#CE884C"/>
<path d="M109.156 394.675C111.809 394.675 113.96 392.524 113.96 389.87C113.96 387.217 111.809 385.066 109.156 385.066C106.503 385.066 104.352 387.217 104.352 389.87C104.352 392.524 106.503 394.675 109.156 394.675Z" fill="white"/>
<path d="M109.136 330.523C108.695 333.455 109.486 334.069 109.49 346.711C109.494 359.354 112.118 376.304 109.152 376.305C106.187 376.306 105.102 341.324 94.8044 338.228C82.6973 334.588 110.565 321.03 109.136 330.523V330.523Z" fill="white"/>
<path d="M50.7793 379.21L44.184 393.145C52.1572 387.428 64.6112 382.499 74.5216 379.86C65.2876 375.399 53.9884 368.208 47.2381 361.088L51.0315 375.812C6.55754 366.753 56.5008 299.5 69.0008 283H67.9999C49.9995 304.5 4.5098 369.961 50.7793 379.21Z" fill="#3F3D56"/>
</svg>
