<svg width="1362" height="187" viewBox="0 0 1362 187" fill="none" xmlns="http://www.w3.org/2000/svg">
<path d="M112.595 2.90909V2.40909H112.095V2.90909H112.595ZM150.882 2.90909H151.382V2.40909H150.882V2.90909ZM141.421 155.174L140.999 154.905L140.998 154.907L141.421 155.174ZM115.159 178.341L115.378 178.79L115.38 178.79L115.159 178.341ZM36.3739 178.341L36.1532 178.79L36.155 178.79L36.3739 178.341ZM10.1122 155.174L9.68935 155.441L9.68935 155.441L10.1122 155.174ZM0.739346 2.90909V2.40909H0.239346V2.90909H0.739346ZM39.0266 2.90909H39.5266V2.40909H39.0266V2.90909ZM43.5362 135.632L43.1 135.877L43.1021 135.881L43.5362 135.632ZM56.446 148.277L56.204 148.715L56.204 148.715L56.446 148.277ZM95.1754 148.277L94.9334 147.839L94.9314 147.841L95.1754 148.277ZM107.997 135.632L107.563 135.384L107.561 135.388L107.997 135.632ZM112.595 3.40909H150.882V2.40909H112.595V3.40909ZM150.382 2.90909V120.512H151.382V2.90909H150.382ZM150.382 120.512C150.382 133.634 147.249 145.092 140.999 154.905L141.843 155.443C148.207 145.449 151.382 133.8 151.382 120.512H150.382ZM140.998 154.907C134.802 164.727 126.121 172.389 114.938 177.892L115.38 178.79C126.716 173.211 135.542 165.428 141.844 155.441L140.998 154.907ZM114.94 177.891C103.761 183.335 90.7226 186.064 75.8107 186.064V187.064C90.8449 187.064 104.038 184.312 115.378 178.79L114.94 177.891ZM75.8107 186.064C60.8396 186.064 47.7715 183.334 36.5928 177.891L36.155 178.79C47.4948 184.312 60.7179 187.064 75.8107 187.064V186.064ZM36.5947 177.892C25.4122 172.389 16.7308 164.727 10.5351 154.907L9.68935 155.441C15.9908 165.428 24.8172 173.211 36.1532 178.79L36.5947 177.892ZM10.5351 154.907C4.34312 145.094 1.23935 133.635 1.23935 120.512H0.239346C0.239346 133.799 3.38415 145.448 9.68935 155.441L10.5351 154.907ZM1.23935 120.512V2.90909H0.239346V120.512H1.23935ZM0.739346 3.40909H39.0266V2.40909H0.739346V3.40909ZM38.5266 2.90909V117.24H39.5266V2.90909H38.5266ZM38.5266 117.24C38.5266 124.212 40.0469 130.429 43.1001 135.877L43.9724 135.388C41.0127 130.107 39.5266 124.062 39.5266 117.24H38.5266ZM43.1021 135.881C46.2141 141.326 50.5847 145.606 56.204 148.715L56.6881 147.839C51.2249 144.817 46.989 140.667 43.9703 135.384L43.1021 135.881ZM56.204 148.715C61.8306 151.827 68.3714 153.375 75.8107 153.375V152.375C68.5128 152.375 62.1438 150.858 56.6881 147.839L56.204 148.715ZM75.8107 153.375C83.3081 153.375 89.8501 151.827 95.4194 148.713L94.9314 147.841C89.5363 150.857 83.1685 152.375 75.8107 152.375V153.375ZM95.4175 148.715C101.038 145.606 105.38 141.325 108.433 135.877L107.561 135.388C104.601 140.669 100.396 144.818 94.9334 147.839L95.4175 148.715ZM108.431 135.881C111.544 130.432 113.095 124.214 113.095 117.24H112.095C112.095 124.061 110.58 130.104 107.563 135.384L108.431 135.881ZM113.095 117.24V2.90909H112.095V117.24H113.095ZM337.587 2.90909H338.087V2.40909H337.587V2.90909ZM337.587 184V184.5H338.087V184H337.587ZM304.517 184L304.105 184.284L304.254 184.5H304.517V184ZM225.732 70.0224L226.143 69.7381L225.994 69.5224H225.732V70.0224ZM224.405 70.0224V69.5224H223.905V70.0224H224.405ZM224.405 184V184.5H224.905V184H224.405ZM186.118 184H185.618V184.5H186.118V184ZM186.118 2.90909V2.40909H185.618V2.90909H186.118ZM219.719 2.90909L220.131 2.62615L219.982 2.40909H219.719V2.90909ZM297.885 116.798L297.473 117.081L297.622 117.298H297.885V116.798ZM299.477 116.798V117.298H299.977V116.798H299.477ZM299.477 2.90909V2.40909H298.977V2.90909H299.477ZM337.087 2.90909V184H338.087V2.90909H337.087ZM337.587 183.5H304.517V184.5H337.587V183.5ZM304.928 183.716L226.143 69.7381L225.32 70.3067L304.105 184.284L304.928 183.716ZM225.732 69.5224H224.405V70.5224H225.732V69.5224ZM223.905 70.0224V184H224.905V70.0224H223.905ZM224.405 183.5H186.118V184.5H224.405V183.5ZM186.618 184V2.90909H185.618V184H186.618ZM186.118 3.40909H219.719V2.40909H186.118V3.40909ZM219.307 3.19202L297.473 117.081L298.297 116.515L220.131 2.62615L219.307 3.19202ZM297.885 117.298H299.477V116.298H297.885V117.298ZM299.977 116.798V2.90909H298.977V116.798H299.977ZM299.477 3.40909H337.587V2.40909H299.477V3.40909ZM471.194 54.9904L470.696 55.0398L470.741 55.4904H471.194V54.9904ZM424.418 35.0952L424.602 35.5599L424.608 35.5576L424.418 35.0952ZM414.514 42.2575L414.114 41.9574L414.111 41.9624L414.514 42.2575ZM411.154 52.6914L411.654 52.7096L411.654 52.7005V52.6914H411.154ZM413.188 61.18L412.761 61.4404L412.766 61.4478L413.188 61.18ZM419.466 67.4581L419.189 67.8742L419.195 67.8784L419.466 67.4581ZM428.662 71.9677L428.487 72.4362L428.494 72.4387L428.662 71.9677ZM439.803 75.1509L439.92 74.6646L439.913 74.663L439.803 75.1509ZM456.073 79.0415L455.957 79.5279L455.964 79.5295L456.073 79.0415ZM477.825 86.1154L477.622 86.572L477.622 86.572L477.825 86.1154ZM494.98 96.9915L495.312 96.618L495.312 96.618L494.98 96.9915ZM506.209 112.2L505.754 112.407L505.756 112.411L506.209 112.2ZM510.365 132.272L510.865 132.275L510.865 132.268L510.365 132.272ZM501.877 161.098L501.465 160.815L501.464 160.815L501.877 161.098ZM477.825 179.933L478.021 180.393L478.022 180.392L477.825 179.933ZM401.87 179.844L401.678 180.306L401.679 180.306L401.87 179.844ZM376.581 159.949L376.167 160.23L376.17 160.233L376.581 159.949ZM367.12 127.144V126.644H366.608L366.62 127.155L367.12 127.144ZM404.169 127.144L404.668 127.11L404.636 126.644H404.169V127.144ZM409.386 142.353L408.986 142.654L408.991 142.66L409.386 142.353ZM421.854 151.46L421.669 151.925L421.675 151.927L421.854 151.46ZM456.515 151.637L456.334 151.171L456.332 151.172L456.515 151.637ZM467.745 143.767L468.138 144.077L468.138 144.077L467.745 143.767ZM468.099 121.927L467.718 122.251L467.722 122.256L468.099 121.927ZM457.665 114.853L457.468 115.313L457.47 115.313L457.665 114.853ZM440.953 109.548L440.831 110.033L440.836 110.034L440.953 109.548ZM421.235 104.596L421.356 104.111L421.353 104.11L421.235 104.596ZM385.069 87.1765L384.736 87.5494L384.736 87.5494L385.069 87.1765ZM371.894 55.2557L372.394 55.2579L372.394 55.253L371.894 55.2557ZM380.648 26.5181L380.244 26.2242L380.242 26.2261L380.648 26.5181ZM475.703 7.33025L475.495 7.7847L475.496 7.78516L475.703 7.33025ZM499.224 26.5181L498.811 26.8002L498.811 26.8002L499.224 26.5181ZM507.889 54.9904V55.4904H508.398L508.389 54.9822L507.889 54.9904ZM471.691 54.9411C470.971 47.6794 467.87 42.0046 462.383 37.9642L461.79 38.7695C467.031 42.6282 470.002 48.0358 470.696 55.0398L471.691 54.9411ZM462.383 37.9642C456.905 33.9313 449.509 31.9425 440.246 31.9425V32.9425C449.375 32.9425 456.538 34.9032 461.79 38.7695L462.383 37.9642ZM440.246 31.9425C433.953 31.9425 428.608 32.8325 424.228 34.6327L424.608 35.5576C428.834 33.8209 434.041 32.9425 440.246 32.9425V31.9425ZM424.233 34.6305C419.862 36.3669 416.479 38.8044 414.114 41.9575L414.914 42.5575C417.148 39.5798 420.367 37.2425 424.602 35.5598L424.233 34.6305ZM414.111 41.9624C411.806 45.1157 410.654 48.6975 410.654 52.6914H411.654C411.654 48.904 412.742 45.5299 414.918 42.5525L414.111 41.9624ZM410.655 52.6732C410.534 55.9987 411.229 58.928 412.761 61.4403L413.615 60.9197C412.199 58.5983 411.539 55.8685 411.654 52.7096L410.655 52.6732ZM412.766 61.4478C414.34 63.9301 416.485 66.0713 419.189 67.8741L419.743 67.0421C417.142 65.3079 415.101 63.2638 413.61 60.9123L412.766 61.4478ZM419.195 67.8784C421.883 69.6104 424.981 71.1289 428.487 72.4362L428.837 71.4992C425.387 70.2127 422.355 68.7248 419.737 67.0378L419.195 67.8784ZM428.494 72.4387C431.993 73.6841 435.727 74.7506 439.694 75.6388L439.913 74.663C435.981 73.7828 432.287 72.7271 428.83 71.4966L428.494 72.4387ZM439.687 75.6372L455.957 79.5278L456.19 78.5553L439.92 74.6646L439.687 75.6372ZM455.964 79.5295C463.835 81.2915 471.053 83.6396 477.622 86.572L478.029 85.6588C471.393 82.6963 464.11 80.3285 456.183 78.5536L455.964 79.5295ZM477.622 86.572C484.182 89.5009 489.856 93.0995 494.647 97.3649L495.312 96.618C490.436 92.2769 484.673 88.6248 478.029 85.6588L477.622 86.572ZM494.647 97.3649C499.429 101.622 503.131 106.635 505.754 112.407L506.665 111.993C503.983 106.093 500.197 100.967 495.312 96.618L494.647 97.3649ZM505.756 112.411C508.433 118.172 509.807 124.79 509.865 132.276L510.865 132.268C510.806 124.664 509.409 117.901 506.663 111.99L505.756 112.411ZM509.865 132.27C509.807 143.264 507.001 152.772 501.465 160.815L502.288 161.382C507.952 153.154 510.806 143.445 510.865 132.275L509.865 132.27ZM501.464 160.815C495.985 168.801 488.049 175.024 477.629 179.473L478.022 180.392C488.587 175.881 496.686 169.548 502.289 161.381L501.464 160.815ZM477.63 179.472C467.274 183.861 454.758 186.064 440.069 186.064V187.064C454.854 187.064 467.509 184.847 478.021 180.393L477.63 179.472ZM440.069 186.064C425.499 186.064 412.834 183.832 402.061 179.382L401.679 180.306C412.599 184.817 425.399 187.064 440.069 187.064V186.064ZM402.062 179.382C391.354 174.935 383.004 168.362 376.992 159.665L376.17 160.233C382.301 169.103 390.81 175.793 401.678 180.306L402.062 179.382ZM376.994 159.668C371.047 150.921 367.912 140.085 367.619 127.133L366.62 127.155C366.916 140.258 370.09 151.292 376.167 160.23L376.994 159.668ZM367.12 127.644H404.169V126.644H367.12V127.644ZM403.67 127.178C404.088 133.327 405.852 138.495 408.987 142.654L409.785 142.052C406.789 138.076 405.075 133.104 404.668 127.11L403.67 127.178ZM408.991 142.66C412.176 146.745 416.407 149.832 421.669 151.925L422.038 150.996C416.925 148.962 412.845 145.977 409.78 142.045L408.991 142.66ZM421.675 151.927C426.988 153.957 432.974 154.967 439.627 154.967V153.967C433.075 153.967 427.212 152.972 422.032 150.993L421.675 151.927ZM439.627 154.967C446.158 154.967 451.853 154.017 456.699 152.102L456.332 151.172C451.629 153.03 446.064 153.967 439.627 153.967V154.967ZM456.697 152.103C461.596 150.191 465.419 147.521 468.138 144.077L467.353 143.458C464.766 146.734 461.102 149.31 456.334 151.171L456.697 152.103ZM468.138 144.077C470.861 140.627 472.224 136.656 472.224 132.184H471.224C471.224 136.436 469.934 140.188 467.353 143.458L468.138 144.077ZM472.224 132.184C472.224 128.009 470.981 124.47 468.476 121.598L467.722 122.256C470.051 124.925 471.224 128.224 471.224 132.184H472.224ZM468.48 121.603C466.056 118.755 462.504 116.357 457.86 114.392L457.47 115.313C462.022 117.239 465.426 119.558 467.718 122.251L468.48 121.603ZM457.862 114.393C453.29 112.434 447.69 110.657 441.07 109.062L440.836 110.034C447.42 111.621 452.962 113.382 457.468 115.313L457.862 114.393ZM441.075 109.063L421.356 104.111L421.113 105.081L440.831 110.033L441.075 109.063ZM421.353 104.11C406.14 100.41 394.167 94.6331 385.403 86.8036L384.736 87.5494C393.657 95.5182 405.794 101.355 421.116 105.082L421.353 104.11ZM385.403 86.8036C376.681 79.0127 372.336 68.5166 372.394 55.2579L371.394 55.2535C371.335 68.7575 375.773 79.542 384.736 87.5494L385.403 86.8036ZM372.394 55.253C372.336 44.3846 375.226 34.9107 381.054 26.8101L380.242 26.2261C374.28 34.5133 371.335 44.1978 371.394 55.2584L372.394 55.253ZM381.053 26.812C386.949 18.6976 395.04 12.3541 405.344 7.78737L404.939 6.87313C394.493 11.5024 386.255 17.9508 380.244 26.2242L381.053 26.812ZM405.344 7.78737C415.646 3.22188 427.365 0.933232 440.511 0.933232V-0.0667681C427.248 -0.0667681 415.387 2.24259 404.939 6.87313L405.344 7.78737ZM440.511 0.933232C453.895 0.933232 465.552 3.22253 475.495 7.7847L475.912 6.8758C465.812 2.24195 454.008 -0.0667681 440.511 -0.0667681V0.933232ZM475.496 7.78516C485.503 12.3499 493.268 18.6901 498.811 26.8002L499.637 26.236C493.979 17.9584 486.064 11.5066 475.911 6.87534L475.496 7.78516ZM498.811 26.8002C504.351 34.9063 507.214 44.2999 507.389 54.9986L508.389 54.9822C508.211 44.1056 505.297 34.5177 499.637 26.236L498.811 26.8002ZM507.889 54.4904H471.194V55.4904H507.889V54.4904ZM539.854 184H539.354V184.5H539.854V184ZM539.854 2.90909V2.40909H539.354V2.90909H539.854ZM646.404 10.7788L646.165 11.2182L646.167 11.2193L646.404 10.7788ZM668.509 32.4425L668.071 32.6827L668.073 32.686L668.509 32.4425ZM645.873 117.594L645.642 117.151L645.641 117.151L645.873 117.594ZM564.789 125.287H564.289V125.787H564.789V125.287ZM564.789 94.604V94.104H564.289V94.604H564.789ZM622.352 90.8018L622.587 91.2435L622.589 91.2424L622.352 90.8018ZM633.14 80.1026L632.698 79.87L632.696 79.8721L633.14 80.1026ZM633.14 48.5355L632.696 48.766L632.7 48.7729L633.14 48.5355ZM622.352 38.0131L622.12 38.456L622.125 38.4582L622.352 38.0131ZM578.141 34.2109V33.7109H577.641V34.2109H578.141ZM578.141 184V184.5H578.641V184H578.141ZM540.354 184V2.90909H539.354V184H540.354ZM539.854 3.40909H611.3V2.40909H539.854V3.40909ZM611.3 3.40909C624.972 3.40909 636.587 6.0202 646.165 11.2182L646.642 10.3393C636.885 5.04442 625.098 2.40909 611.3 2.40909V3.40909ZM646.167 11.2193C655.753 16.363 663.05 23.5162 668.071 32.6827L668.948 32.2023C663.83 22.8588 656.389 15.5696 646.64 10.3382L646.167 11.2193ZM668.073 32.686C673.154 41.7975 675.702 52.3223 675.702 64.2749H676.702C676.702 52.1763 674.122 41.4794 668.946 32.1989L668.073 32.686ZM675.702 64.2749C675.702 76.2265 673.125 86.7504 667.986 95.8616L668.857 96.3529C674.092 87.072 676.702 76.3744 676.702 64.2749H675.702ZM667.986 95.8616C662.848 104.969 655.405 112.064 645.642 117.151L646.104 118.038C656.03 112.867 663.619 105.638 668.857 96.3529L667.986 95.8616ZM645.641 117.151C635.943 122.234 624.178 124.787 610.327 124.787V125.787C624.299 125.787 636.232 123.212 646.105 118.037L645.641 117.151ZM610.327 124.787H564.789V125.787H610.327V124.787ZM565.289 125.287V94.604H564.289V125.287H565.289ZM564.789 95.104H604.137V94.104H564.789V95.104ZM604.137 95.104C611.559 95.104 617.718 93.828 622.587 91.2435L622.118 90.3602C617.437 92.8453 611.452 94.104 604.137 94.104V95.104ZM622.589 91.2424C627.505 88.6047 631.176 84.968 633.584 80.3331L632.696 79.8721C630.388 84.3153 626.868 87.8115 622.116 90.3613L622.589 91.2424ZM633.583 80.3353C636.043 75.6556 637.265 70.2978 637.265 64.2749H636.265C636.265 70.1596 635.072 75.3536 632.698 79.87L633.583 80.3353ZM637.265 64.2749C637.265 58.1942 636.043 52.8633 633.58 48.2981L632.7 48.7729C635.071 53.1679 636.265 58.3299 636.265 64.2749H637.265ZM633.584 48.305C631.175 43.6679 627.501 40.0882 622.58 37.5681L622.125 38.4582C626.872 40.8897 630.389 44.325 632.696 48.766L633.584 48.305ZM622.585 37.5703C617.658 34.9869 611.441 33.7109 603.96 33.7109V34.7109C611.335 34.7109 617.379 35.9698 622.12 38.4559L622.585 37.5703ZM603.96 33.7109H578.141V34.7109H603.96V33.7109ZM577.641 34.2109V184H578.641V34.2109H577.641ZM578.141 183.5H539.854V184.5H578.141V183.5ZM704.806 184H704.306V184.5H704.806V184ZM704.806 2.90909V2.40909H704.306V2.90909H704.806ZM743.094 2.90909H743.594V2.40909H743.094V2.90909ZM743.094 152.433H742.594V152.933H743.094V152.433ZM820.729 152.433H821.229V151.933H820.729V152.433ZM820.729 184V184.5H821.229V184H820.729ZM705.306 184V2.90909H704.306V184H705.306ZM704.806 3.40909H743.094V2.40909H704.806V3.40909ZM742.594 2.90909V152.433H743.594V2.90909H742.594ZM743.094 152.933H820.729V151.933H743.094V152.933ZM820.229 152.433V184H821.229V152.433H820.229ZM820.729 183.5H704.806V184.5H820.729V183.5ZM885.653 184V184.5H886.016L886.129 184.155L885.653 184ZM844.625 184L844.152 183.837L843.923 184.5H844.625V184ZM907.14 2.90909V2.40909H906.784L906.667 2.74593L907.14 2.90909ZM956.48 2.90909L956.953 2.74613L956.837 2.40909H956.48V2.90909ZM1018.91 184V184.5H1019.61L1019.38 183.837L1018.91 184ZM977.879 184L977.403 184.154L977.515 184.5H977.879V184ZM932.518 44.2912L932.993 44.1368L932.881 43.7912H932.518V44.2912ZM931.103 44.2912V43.7912H930.74L930.627 44.1365L931.103 44.2912ZM883.089 112.819V112.319H882.589V112.819H883.089ZM980.001 112.819H980.501V112.319H980.001V112.819ZM980.001 142.706V143.206H980.501V142.706H980.001ZM883.089 142.706H882.589V143.206H883.089V142.706ZM885.653 183.5H844.625V184.5H885.653V183.5ZM845.097 184.163L907.613 3.07224L906.667 2.74593L844.152 183.837L845.097 184.163ZM907.14 3.40909H956.48V2.40909H907.14V3.40909ZM956.008 3.07204L1018.43 184.163L1019.38 183.837L956.953 2.74613L956.008 3.07204ZM1018.91 183.5H977.879V184.5H1018.91V183.5ZM978.354 183.846L932.993 44.1368L932.042 44.4456L977.403 184.154L978.354 183.846ZM932.518 43.7912H931.103V44.7912H932.518V43.7912ZM930.627 44.1365L885.178 183.845L886.129 184.155L931.578 44.4459L930.627 44.1365ZM883.089 113.319H980.001V112.319H883.089V113.319ZM979.501 112.819V142.706H980.501V112.819H979.501ZM980.001 142.206H883.089V143.206H980.001V142.206ZM883.589 142.706V112.819H882.589V142.706H883.589ZM1138.54 54.9904L1138.05 55.0398L1138.09 55.4904H1138.54V54.9904ZM1091.77 35.0952L1091.95 35.5599L1091.96 35.5576L1091.77 35.0952ZM1081.86 42.2575L1081.46 41.9574L1081.46 41.9624L1081.86 42.2575ZM1078.5 52.6914L1079 52.7096L1079 52.7005V52.6914H1078.5ZM1080.54 61.18L1080.11 61.4404L1080.12 61.4478L1080.54 61.18ZM1086.82 67.4581L1086.54 67.8742L1086.54 67.8784L1086.82 67.4581ZM1096.01 71.9677L1095.84 72.4362L1095.84 72.4387L1096.01 71.9677ZM1107.15 75.1509L1107.27 74.6646L1107.26 74.663L1107.15 75.1509ZM1123.42 79.0415L1123.31 79.5279L1123.31 79.5295L1123.42 79.0415ZM1145.17 86.1154L1144.97 86.572L1144.97 86.572L1145.17 86.1154ZM1162.33 96.9915L1162.66 96.618L1162.66 96.618L1162.33 96.9915ZM1173.56 112.2L1173.1 112.407L1173.11 112.411L1173.56 112.2ZM1177.71 132.272L1178.21 132.275L1178.21 132.268L1177.71 132.272ZM1169.23 161.098L1168.81 160.815L1168.81 160.815L1169.23 161.098ZM1145.17 179.933L1145.37 180.393L1145.37 180.392L1145.17 179.933ZM1069.22 179.844L1069.03 180.306L1069.03 180.306L1069.22 179.844ZM1043.93 159.949L1043.52 160.23L1043.52 160.233L1043.93 159.949ZM1034.47 127.144V126.644H1033.96L1033.97 127.155L1034.47 127.144ZM1071.52 127.144L1072.02 127.11L1071.99 126.644H1071.52V127.144ZM1076.74 142.353L1076.34 142.654L1076.34 142.66L1076.74 142.353ZM1089.2 151.46L1089.02 151.925L1089.02 151.927L1089.2 151.46ZM1123.86 151.637L1123.68 151.171L1123.68 151.172L1123.86 151.637ZM1135.09 143.767L1135.49 144.077L1135.49 144.077L1135.09 143.767ZM1135.45 121.927L1135.07 122.251L1135.07 122.256L1135.45 121.927ZM1125.01 114.853L1124.82 115.313L1124.82 115.313L1125.01 114.853ZM1108.3 109.548L1108.18 110.033L1108.18 110.034L1108.3 109.548ZM1088.58 104.596L1088.71 104.111L1088.7 104.11L1088.58 104.596ZM1052.42 87.1765L1052.09 87.5494L1052.09 87.5494L1052.42 87.1765ZM1039.24 55.2557L1039.74 55.2579L1039.74 55.253L1039.24 55.2557ZM1048 26.5181L1047.59 26.2242L1047.59 26.2261L1048 26.5181ZM1143.05 7.33025L1142.84 7.7847L1142.85 7.78516L1143.05 7.33025ZM1166.57 26.5181L1166.16 26.8002L1166.16 26.8002L1166.57 26.5181ZM1175.24 54.9904V55.4904H1175.75L1175.74 54.9822L1175.24 54.9904ZM1139.04 54.9411C1138.32 47.6794 1135.22 42.0046 1129.73 37.9642L1129.14 38.7695C1134.38 42.6282 1137.35 48.0358 1138.05 55.0398L1139.04 54.9411ZM1129.73 37.9642C1124.25 33.9313 1116.86 31.9425 1107.59 31.9425V32.9425C1116.72 32.9425 1123.89 34.9032 1129.14 38.7695L1129.73 37.9642ZM1107.59 31.9425C1101.3 31.9425 1095.96 32.8325 1091.58 34.6327L1091.96 35.5576C1096.18 33.8209 1101.39 32.9425 1107.59 32.9425V31.9425ZM1091.58 34.6305C1087.21 36.3669 1083.83 38.8044 1081.46 41.9575L1082.26 42.5575C1084.5 39.5798 1087.72 37.2425 1091.95 35.5598L1091.58 34.6305ZM1081.46 41.9624C1079.16 45.1157 1078 48.6975 1078 52.6914H1079C1079 48.904 1080.09 45.5299 1082.27 42.5525L1081.46 41.9624ZM1078 52.6732C1077.88 55.9987 1078.58 58.928 1080.11 61.4403L1080.96 60.9197C1079.55 58.5983 1078.89 55.8685 1079 52.7096L1078 52.6732ZM1080.12 61.4478C1081.69 63.9301 1083.83 66.0713 1086.54 67.8741L1087.09 67.0421C1084.49 65.3079 1082.45 63.2638 1080.96 60.9123L1080.12 61.4478ZM1086.54 67.8784C1089.23 69.6104 1092.33 71.1289 1095.84 72.4362L1096.19 71.4992C1092.74 70.2127 1089.7 68.7248 1087.09 67.0378L1086.54 67.8784ZM1095.84 72.4387C1099.34 73.6841 1103.08 74.7506 1107.04 75.6388L1107.26 74.663C1103.33 73.7828 1099.64 72.7271 1096.18 71.4966L1095.84 72.4387ZM1107.04 75.6372L1123.31 79.5278L1123.54 78.5553L1107.27 74.6646L1107.04 75.6372ZM1123.31 79.5295C1131.18 81.2915 1138.4 83.6396 1144.97 86.572L1145.38 85.6588C1138.74 82.6963 1131.46 80.3285 1123.53 78.5536L1123.31 79.5295ZM1144.97 86.572C1151.53 89.5009 1157.21 93.0995 1162 97.3649L1162.66 96.618C1157.78 92.2769 1152.02 88.6248 1145.38 85.6588L1144.97 86.572ZM1162 97.3649C1166.78 101.622 1170.48 106.635 1173.1 112.407L1174.01 111.993C1171.33 106.093 1167.55 100.967 1162.66 96.618L1162 97.3649ZM1173.11 112.411C1175.78 118.172 1177.16 124.79 1177.21 132.276L1178.21 132.268C1178.16 124.664 1176.76 117.901 1174.01 111.99L1173.11 112.411ZM1177.21 132.27C1177.16 143.264 1174.35 152.772 1168.81 160.815L1169.64 161.382C1175.3 153.154 1178.16 143.445 1178.21 132.275L1177.21 132.27ZM1168.81 160.815C1163.33 168.801 1155.4 175.024 1144.98 179.473L1145.37 180.392C1155.94 175.881 1164.03 169.548 1169.64 161.381L1168.81 160.815ZM1144.98 179.472C1134.62 183.861 1122.11 186.064 1107.42 186.064V187.064C1122.2 187.064 1134.86 184.847 1145.37 180.393L1144.98 179.472ZM1107.42 186.064C1092.85 186.064 1080.18 183.832 1069.41 179.382L1069.03 180.306C1079.95 184.817 1092.75 187.064 1107.42 187.064V186.064ZM1069.41 179.382C1058.7 174.935 1050.35 168.362 1044.34 159.665L1043.52 160.233C1049.65 169.103 1058.16 175.793 1069.03 180.306L1069.41 179.382ZM1044.34 159.668C1038.4 150.921 1035.26 140.085 1034.97 127.133L1033.97 127.155C1034.27 140.258 1037.44 151.292 1043.52 160.23L1044.34 159.668ZM1034.47 127.644H1071.52V126.644H1034.47V127.644ZM1071.02 127.178C1071.44 133.327 1073.2 138.495 1076.34 142.654L1077.13 142.052C1074.14 138.076 1072.42 133.104 1072.02 127.11L1071.02 127.178ZM1076.34 142.66C1079.52 146.745 1083.76 149.832 1089.02 151.925L1089.39 150.996C1084.27 148.962 1080.19 145.977 1077.13 142.045L1076.34 142.66ZM1089.02 151.927C1094.34 153.957 1100.32 154.967 1106.98 154.967V153.967C1100.42 153.967 1094.56 152.972 1089.38 150.993L1089.02 151.927ZM1106.98 154.967C1113.51 154.967 1119.2 154.017 1124.05 152.102L1123.68 151.172C1118.98 153.03 1113.41 153.967 1106.98 153.967V154.967ZM1124.05 152.103C1128.95 150.191 1132.77 147.521 1135.49 144.077L1134.7 143.458C1132.12 146.734 1128.45 149.31 1123.68 151.171L1124.05 152.103ZM1135.49 144.077C1138.21 140.627 1139.57 136.656 1139.57 132.184H1138.57C1138.57 136.436 1137.28 140.188 1134.7 143.458L1135.49 144.077ZM1139.57 132.184C1139.57 128.009 1138.33 124.47 1135.82 121.598L1135.07 122.256C1137.4 124.925 1138.57 128.224 1138.57 132.184H1139.57ZM1135.83 121.603C1133.41 118.755 1129.85 116.357 1125.21 114.392L1124.82 115.313C1129.37 117.239 1132.78 119.558 1135.07 122.251L1135.83 121.603ZM1125.21 114.393C1120.64 112.434 1115.04 110.657 1108.42 109.062L1108.18 110.034C1114.77 111.621 1120.31 113.382 1124.82 115.313L1125.21 114.393ZM1108.42 109.063L1088.71 104.111L1088.46 105.081L1108.18 110.033L1108.42 109.063ZM1088.7 104.11C1073.49 100.41 1061.52 94.6331 1052.75 86.8036L1052.09 87.5494C1061.01 95.5182 1073.14 101.355 1088.47 105.082L1088.7 104.11ZM1052.75 86.8036C1044.03 79.0127 1039.69 68.5166 1039.74 55.2579L1038.74 55.2535C1038.68 68.7575 1043.12 79.542 1052.09 87.5494L1052.75 86.8036ZM1039.74 55.253C1039.69 44.3846 1042.58 34.9107 1048.4 26.8101L1047.59 26.2261C1041.63 34.5133 1038.68 44.1978 1038.74 55.2584L1039.74 55.253ZM1048.4 26.812C1054.3 18.6976 1062.39 12.3541 1072.69 7.78737L1072.29 6.87313C1061.84 11.5024 1053.6 17.9508 1047.59 26.2242L1048.4 26.812ZM1072.69 7.78737C1082.99 3.22188 1094.71 0.933232 1107.86 0.933232V-0.0667681C1094.6 -0.0667681 1082.74 2.24259 1072.29 6.87313L1072.69 7.78737ZM1107.86 0.933232C1121.24 0.933232 1132.9 3.22253 1142.84 7.7847L1143.26 6.8758C1133.16 2.24195 1121.36 -0.0667681 1107.86 -0.0667681V0.933232ZM1142.85 7.78516C1152.85 12.3499 1160.62 18.6901 1166.16 26.8002L1166.99 26.236C1161.33 17.9584 1153.41 11.5066 1143.26 6.87534L1142.85 7.78516ZM1166.16 26.8002C1171.7 34.9063 1174.56 44.2999 1174.74 54.9986L1175.74 54.9822C1175.56 44.1056 1172.65 34.5177 1166.99 26.236L1166.16 26.8002ZM1175.24 54.4904H1138.54V55.4904H1175.24V54.4904ZM1207.2 184H1206.7V184.5H1207.2V184ZM1207.2 2.90909V2.40909H1206.7V2.90909H1207.2ZM1245.49 2.90909H1245.99V2.40909H1245.49V2.90909ZM1245.49 77.6268H1244.99V78.1268H1245.49V77.6268ZM1323.21 77.6268V78.1268H1323.71V77.6268H1323.21ZM1323.21 2.90909V2.40909H1322.71V2.90909H1323.21ZM1361.41 2.90909H1361.91V2.40909H1361.41V2.90909ZM1361.41 184V184.5H1361.91V184H1361.41ZM1323.21 184H1322.71V184.5H1323.21V184ZM1323.21 109.194H1323.71V108.694H1323.21V109.194ZM1245.49 109.194V108.694H1244.99V109.194H1245.49ZM1245.49 184V184.5H1245.99V184H1245.49ZM1207.7 184V2.90909H1206.7V184H1207.7ZM1207.2 3.40909H1245.49V2.40909H1207.2V3.40909ZM1244.99 2.90909V77.6268H1245.99V2.90909H1244.99ZM1245.49 78.1268H1323.21V77.1268H1245.49V78.1268ZM1323.71 77.6268V2.90909H1322.71V77.6268H1323.71ZM1323.21 3.40909H1361.41V2.40909H1323.21V3.40909ZM1360.91 2.90909V184H1361.91V2.90909H1360.91ZM1361.41 183.5H1323.21V184.5H1361.41V183.5ZM1323.71 184V109.194H1322.71V184H1323.71ZM1323.21 108.694H1245.49V109.694H1323.21V108.694ZM1244.99 109.194V184H1245.99V109.194H1244.99ZM1245.49 183.5H1207.2V184.5H1245.49V183.5Z" fill="#4A4944"/>
</svg>
